<svg xmlns="http://www.w3.org/2000/svg" xmlns:xlink="http://www.w3.org/1999/xlink" width="500" zoomAndPan="magnify" viewBox="0 0 375 374.999991" height="500" preserveAspectRatio="xMidYMid meet" version="1.0"><defs><clipPath id="1050c8d71f"><path d="M 187.5 0 L 375 0 L 375 374.25 L 187.5 374.25 Z M 187.5 0 " clip-rule="nonzero"/></clipPath><clipPath id="040643d5c7"><path d="M 306 278 L 375 278 L 375 374.25 L 306 374.25 Z M 306 278 " clip-rule="nonzero"/></clipPath><clipPath id="76b655d96a"><path d="M 187.5 119 L 283 119 L 283 255 L 187.5 255 Z M 187.5 119 " clip-rule="nonzero"/></clipPath></defs><g clip-path="url(#1050c8d71f)"><path stroke-linecap="butt" transform="matrix(5.191394, 0, 0, 5.197917, 187.507156, 0)" fill="none" stroke-linejoin="miter" d="M 61.021338 35.999999 C 61.021338 36.409568 61.010804 36.818386 60.990488 37.227955 C 60.970924 37.636773 60.940826 38.044839 60.900194 38.452153 C 60.860314 38.86022 60.809901 39.266031 60.750457 39.671091 C 60.690261 40.076151 60.620284 40.479709 60.540524 40.881011 C 60.460013 41.283065 60.370471 41.682113 60.271148 42.079658 C 60.171825 42.476452 60.06272 42.870991 59.943834 43.263276 C 59.824947 43.654809 59.696279 44.043336 59.558581 44.428857 C 59.420131 44.814378 59.273403 45.196141 59.116142 45.574899 C 58.959633 45.952905 58.794094 46.327153 58.618774 46.697644 C 58.443454 47.067384 58.259857 47.433366 58.066478 47.794087 C 57.873851 48.15556 57.672196 48.511773 57.46151 48.862724 C 57.250825 49.214428 57.031863 49.560119 56.804624 49.90055 C 56.576632 50.240981 56.341117 50.5754 56.097324 50.904558 C 55.853531 51.232965 55.601461 51.556111 55.341867 51.872494 C 55.082272 52.188877 54.814401 52.499247 54.539758 52.802103 C 54.264362 53.10571 53.982194 53.402554 53.692502 53.691883 C 53.403563 53.981211 53.107098 54.263776 52.80311 54.538826 C 52.499873 54.813877 52.189865 55.08066 51.873837 55.34068 C 51.557057 55.6007 51.234257 55.852454 50.905438 56.095941 C 50.576618 56.340179 50.241779 56.576151 49.901673 56.803105 C 49.560815 57.03081 49.214689 57.249498 48.864049 57.46067 C 48.512656 57.671091 48.156748 57.872494 47.795573 58.06563 C 47.434399 58.258766 47.068709 58.442885 46.698505 58.617985 C 46.328301 58.793085 45.954335 58.958416 45.575854 59.11548 C 45.197373 59.271792 44.815883 59.419838 44.429877 59.557363 C 44.044624 59.69564 43.655609 59.824147 43.263584 59.942884 C 42.872311 60.061622 42.477277 60.17059 42.079984 60.27054 C 41.683445 60.369738 41.283895 60.459167 40.882088 60.539578 C 40.480282 60.619237 40.07697 60.689127 39.672153 60.749247 C 39.267337 60.809367 38.861015 60.859718 38.453189 60.899548 C 38.046115 60.939377 37.637536 60.969438 37.228957 60.989728 C 36.819626 61.010019 36.410295 61.019788 36.000963 61.019788 C 35.591632 61.019788 35.182301 61.010019 34.77297 60.989728 C 34.364391 60.969438 33.955812 60.939377 33.548738 60.899548 C 33.140912 60.859718 32.73459 60.809367 32.329773 60.749247 C 31.924957 60.689127 31.521645 60.619237 31.119838 60.539578 C 30.718032 60.459167 30.318482 60.369738 29.921942 60.27054 C 29.52465 60.17059 29.129615 60.061622 28.738343 59.942884 C 28.346318 59.824147 27.957303 59.69564 27.57205 59.557363 C 27.186797 59.419838 26.804554 59.271792 26.426073 59.11548 C 26.047592 58.958416 25.673625 58.793085 25.303421 58.617985 C 24.933217 58.442885 24.567528 58.258766 24.206353 58.06563 C 23.845179 57.872494 23.489271 57.671091 23.137878 57.46067 C 22.787238 57.249498 22.441112 57.03081 22.101006 56.803105 C 21.760147 56.576151 21.425308 56.340179 21.096489 56.095941 C 20.76767 55.852454 20.44487 55.6007 20.128842 55.34068 C 19.812062 55.08066 19.502053 54.813877 19.198817 54.538826 C 18.894828 54.263776 18.598364 53.981211 18.309424 53.691883 C 18.019732 53.402554 17.737565 53.10571 17.462169 52.802103 C 17.187526 52.499247 16.920407 52.188877 16.66006 51.872494 C 16.400466 51.556111 16.148396 51.232965 15.904603 50.904558 C 15.66081 50.5754 15.425294 50.240981 15.197303 49.90055 C 14.970064 49.560119 14.751102 49.214428 14.540416 48.862724 C 14.330484 48.511773 14.128075 48.15556 13.935449 47.794087 C 13.74207 47.433366 13.558473 47.067384 13.383153 46.697644 C 13.207832 46.327153 13.042294 45.952905 12.885785 45.574899 C 12.728524 45.196141 12.581796 44.814378 12.443346 44.428857 C 12.305648 44.043336 12.17698 43.654809 12.058093 43.263276 C 11.939206 42.870991 11.830102 42.476452 11.730778 42.079658 C 11.631455 41.682113 11.541914 41.283065 11.461402 40.881011 C 11.381643 40.479709 11.311665 40.076151 11.25147 39.671091 C 11.192026 39.266031 11.141612 38.86022 11.101733 38.452153 C 11.0611 38.044839 11.031003 37.636773 11.011439 37.227955 C 10.991123 36.818386 10.981341 36.409568 10.981341 35.999999 C 10.981341 35.59043 10.991123 35.181612 11.011439 34.772043 C 11.031003 34.363226 11.0611 33.95516 11.101733 33.547845 C 11.141612 33.139779 11.192026 32.733967 11.25147 32.328907 C 11.311665 31.923847 11.381643 31.52029 11.461402 31.118987 C 11.541914 30.716933 11.631455 30.317885 11.730778 29.92034 C 11.830102 29.523546 11.939206 29.129007 12.058093 28.736723 C 12.17698 28.34519 12.305648 27.956663 12.443346 27.571142 C 12.581796 27.185621 12.728524 26.803857 12.885785 26.4251 C 13.042294 26.047094 13.207832 25.672845 13.383153 25.302354 C 13.558473 24.932615 13.74207 24.566633 13.935449 24.205911 C 14.128075 23.844438 14.330484 23.488226 14.540416 23.137274 C 14.751102 22.785571 14.970064 22.439879 15.197303 22.099448 C 15.425294 21.759018 15.66081 21.424599 15.904603 21.09544 C 16.148396 20.767034 16.400466 20.443887 16.66006 20.127505 C 16.920407 19.811122 17.187526 19.500751 17.462169 19.197895 C 17.737565 18.894288 18.019732 18.597444 18.309424 18.308116 C 18.598364 18.018787 18.894828 17.736222 19.198817 17.461172 C 19.502053 17.186122 19.812062 16.919338 20.128842 16.659318 C 20.44487 16.399298 20.76767 16.147545 21.096489 15.904058 C 21.425308 15.659819 21.760147 15.423847 22.100254 15.196893 C 22.441112 14.969188 22.787238 14.750501 23.137878 14.539328 C 23.489271 14.328908 23.845179 14.127505 24.206353 13.934368 C 24.567528 13.741232 24.933217 13.557114 25.303421 13.382014 C 25.673625 13.206914 26.047592 13.041583 26.426073 12.884519 C 26.804554 12.728206 27.186797 12.58016 27.57205 12.442635 C 27.957303 12.304358 28.346318 12.175851 28.738343 12.057114 C 29.129615 11.938376 29.52465 11.829409 29.921942 11.729459 C 30.318482 11.63026 30.718032 11.540831 31.119838 11.460421 C 31.521645 11.380761 31.924957 11.310871 32.329773 11.250751 C 32.73459 11.190631 33.140912 11.14028 33.548738 11.100451 C 33.955812 11.060621 34.364391 11.030561 34.77297 11.01027 C 35.182301 10.98998 35.591632 10.98021 36.000963 10.98021 C 36.410295 10.98021 36.819626 10.98998 37.228957 11.01027 C 37.637536 11.030561 38.046115 11.060621 38.453189 11.100451 C 38.861015 11.14028 39.267337 11.190631 39.672153 11.250751 C 40.07697 11.310871 40.480282 11.380761 40.882088 11.460421 C 41.283895 11.540831 41.683445 11.63026 42.079984 11.729459 C 42.477277 11.829409 42.872311 11.938376 43.263584 12.057114 C 43.655609 12.175851 44.044624 12.304358 44.429877 12.442635 C 44.815883 12.58016 45.197373 12.728206 45.575854 12.884519 C 45.954335 13.041583 46.328301 13.206914 46.698505 13.382014 C 47.068709 13.557114 47.434399 13.741232 47.795573 13.934368 C 48.156748 14.127505 48.512656 14.328908 48.864049 14.539328 C 49.214689 14.750501 49.560815 14.969188 49.901673 15.196893 C 50.241779 15.423847 50.576618 15.659819 50.905438 15.904058 C 51.234257 16.147545 51.557057 16.399298 51.873837 16.659318 C 52.189865 16.919338 52.499873 17.186122 52.80311 17.461172 C 53.107098 17.736222 53.403563 18.018787 53.692502 18.308116 C 53.982194 18.597444 54.264362 18.894288 54.539758 19.197895 C 54.814401 19.500751 55.082272 19.811122 55.341867 20.127505 C 55.601461 20.443887 55.853531 20.767034 56.097324 21.09544 C 56.341117 21.424599 56.576632 21.759018 56.804624 22.099448 C 57.031863 22.439879 57.250825 22.785571 57.46151 23.137274 C 57.672196 23.488226 57.873851 23.844438 58.066478 24.205911 C 58.259857 24.566633 58.443454 24.932615 58.618774 25.302354 C 58.794094 25.672845 58.959633 26.047094 59.116142 26.4251 C 59.273403 26.803857 59.420131 27.185621 59.558581 27.571142 C 59.696279 27.956663 59.824947 28.34519 59.943834 28.736723 C 60.06272 29.129007 60.171825 29.523546 60.271148 29.92034 C 60.370471 30.317885 60.460013 30.716933 60.540524 31.118987 C 60.620284 31.52029 60.690261 31.923847 60.750457 32.328907 C 60.809901 32.733967 60.860314 33.139779 60.900194 33.547845 C 60.940826 33.95516 60.970924 34.363226 60.990488 34.772043 C 61.010804 35.181612 61.021338 35.59043 61.021338 35.999999 Z M 61.021338 35.999999 " stroke="#ffffff" stroke-width="2.16" stroke-opacity="1" stroke-miterlimit="4"/></g><path stroke-linecap="butt" transform="matrix(5.191394, 0, 0, 5.197917, 187.507156, 0)" fill="none" stroke-linejoin="miter" d="M 30.49305 10.854709 L 35.999459 1.329409 L 41.50662 10.854709 Z M 30.49305 10.854709 " stroke="#ffffff" stroke-width="1.331" stroke-opacity="1" stroke-miterlimit="4"/><path fill="#ffffff" d="M 374.539062 6.941406 L 388.425781 34.710938 L 398.839844 55.539062 L 374.539062 55.539062 Z M 374.539062 6.941406 " fill-opacity="1" fill-rule="nonzero"/><g clip-path="url(#040643d5c7)"><path stroke-linecap="butt" transform="matrix(5.191394, 0, 0, 5.197917, 187.507156, 0)" fill="none" stroke-linejoin="miter" d="M 41.50662 61.145289 L 36.000211 70.67059 L 30.493802 61.145289 Z M 41.50662 61.145289 " stroke="#ffffff" stroke-width="1.331" stroke-opacity="1" stroke-miterlimit="4"/></g><path fill="#ffffff" d="M 374.253906 367.308594 L 360.371094 339.539062 L 349.953125 318.710938 L 374.253906 318.710938 Z M 374.253906 367.308594 " fill-opacity="1" fill-rule="nonzero"/><g clip-path="url(#76b655d96a)"><path stroke-linecap="butt" transform="matrix(5.191394, 0, 0, 5.197917, 187.507156, 0)" fill="none" stroke-linejoin="miter" d="M 10.854177 41.507013 L 1.329701 35.999999 L 10.854177 30.493737 Z M 10.854177 41.507013 " stroke="#ffffff" stroke-width="1.331" stroke-opacity="1" stroke-miterlimit="4"/></g><path fill="#ffffff" d="M 194.441406 186.984375 L 222.179688 173.078125 L 242.980469 162.652344 L 242.980469 186.984375 Z M 194.441406 186.984375 " fill-opacity="1" fill-rule="nonzero"/><path fill="#ffb401" d="M 327.367188 339.199219 C 302.066406 331.367188 279.117188 317.335938 260.597656 298.382812 C 242.074219 279.429688 228.570312 256.148438 221.300781 230.652344 L 228.492188 228.597656 C 235.417969 252.898438 248.289062 275.085938 265.941406 293.148438 C 283.589844 311.210938 305.464844 324.582031 329.578125 332.046875 Z M 327.367188 339.199219 " fill-opacity="1" fill-rule="evenodd"/><path fill="#ffb401" d="M 244.417969 317.273438 L 253.667969 289.484375 L 272.167969 308.011719 Z M 244.417969 317.273438 " fill-opacity="1" fill-rule="nonzero"/><path fill="#ffb401" d="M 222.519531 140.035156 C 230.34375 114.703125 244.355469 91.722656 263.285156 73.179688 C 282.214844 54.636719 305.464844 41.113281 330.929688 33.835938 L 332.984375 41.03125 C 308.710938 47.96875 286.550781 60.855469 268.511719 78.527344 C 250.46875 96.203125 237.117188 118.101562 229.660156 142.246094 Z M 222.519531 140.035156 " fill-opacity="1" fill-rule="evenodd"/><path fill="#ffb401" d="M 244.417969 56.976562 L 272.171875 66.242188 L 253.667969 84.765625 Z M 244.417969 56.976562 " fill-opacity="1" fill-rule="nonzero"/><path fill="#ffb401" d="M 481.859375 187.125 C 481.859375 188.886719 481.816406 190.644531 481.730469 192.40625 C 481.644531 194.164062 481.515625 195.917969 481.339844 197.671875 C 481.167969 199.421875 480.953125 201.171875 480.695312 202.914062 C 480.4375 204.65625 480.136719 206.390625 479.792969 208.117188 C 479.453125 209.84375 479.066406 211.5625 478.636719 213.269531 C 478.210938 214.976562 477.742188 216.671875 477.230469 218.359375 C 476.722656 220.042969 476.167969 221.714844 475.578125 223.375 C 474.984375 225.03125 474.351562 226.671875 473.679688 228.300781 C 473.007812 229.925781 472.292969 231.535156 471.542969 233.128906 C 470.789062 234.71875 470 236.292969 469.171875 237.847656 C 468.339844 239.398438 467.472656 240.929688 466.570312 242.441406 C 465.667969 243.953125 464.726562 245.4375 463.75 246.902344 C 462.773438 248.367188 461.757812 249.804688 460.710938 251.21875 C 459.664062 252.632812 458.582031 254.023438 457.464844 255.382812 C 456.351562 256.746094 455.203125 258.078125 454.019531 259.382812 C 452.839844 260.6875 451.628906 261.960938 450.382812 263.207031 C 449.140625 264.453125 447.867188 265.667969 446.5625 266.847656 C 445.261719 268.03125 443.929688 269.179688 442.570312 270.296875 C 441.210938 271.414062 439.824219 272.5 438.414062 273.546875 C 437 274.597656 435.5625 275.609375 434.101562 276.589844 C 432.636719 277.566406 431.152344 278.507812 429.644531 279.414062 C 428.136719 280.320312 426.605469 281.1875 425.054688 282.015625 C 423.503906 282.847656 421.933594 283.636719 420.34375 284.390625 C 418.753906 285.144531 417.144531 285.859375 415.519531 286.53125 C 413.894531 287.207031 412.257812 287.839844 410.601562 288.433594 C 408.945312 289.023438 407.273438 289.578125 405.59375 290.089844 C 403.910156 290.601562 402.214844 291.070312 400.507812 291.496094 C 398.800781 291.925781 397.085938 292.3125 395.363281 292.65625 C 393.636719 292.996094 391.90625 293.300781 390.164062 293.558594 C 388.425781 293.816406 386.679688 294.03125 384.929688 294.203125 C 383.179688 294.375 381.425781 294.503906 379.671875 294.59375 C 377.914062 294.679688 376.15625 294.722656 374.398438 294.722656 C 372.636719 294.722656 370.882812 294.679688 369.125 294.59375 C 367.367188 294.507812 365.613281 294.375 363.863281 294.203125 C 362.113281 294.03125 360.367188 293.816406 358.628906 293.558594 C 356.890625 293.300781 355.15625 292.996094 353.433594 292.65625 C 351.707031 292.3125 349.992188 291.925781 348.285156 291.496094 C 346.582031 291.070312 344.886719 290.601562 343.203125 290.089844 C 341.519531 289.578125 339.851562 289.023438 338.195312 288.433594 C 336.539062 287.839844 334.898438 287.207031 333.273438 286.53125 C 331.648438 285.859375 330.042969 285.144531 328.453125 284.390625 C 326.863281 283.636719 325.292969 282.847656 323.738281 282.015625 C 322.1875 281.1875 320.660156 280.320312 319.152344 279.414062 C 317.640625 278.507812 316.15625 277.566406 314.695312 276.589844 C 313.230469 275.609375 311.796875 274.597656 310.382812 273.546875 C 308.96875 272.5 307.582031 271.414062 306.222656 270.296875 C 304.863281 269.179688 303.535156 268.03125 302.230469 266.847656 C 300.925781 265.667969 299.652344 264.453125 298.410156 263.207031 C 297.167969 261.960938 295.953125 260.6875 294.773438 259.382812 C 293.59375 258.078125 292.445312 256.746094 291.328125 255.382812 C 290.210938 254.023438 289.128906 252.632812 288.082031 251.21875 C 287.035156 249.804688 286.023438 248.367188 285.046875 246.902344 C 284.070312 245.4375 283.128906 243.953125 282.222656 242.441406 C 281.320312 240.929688 280.453125 239.398438 279.625 237.847656 C 278.796875 236.292969 278.003906 234.71875 277.253906 233.128906 C 276.5 231.535156 275.789062 229.925781 275.117188 228.300781 C 274.441406 226.671875 273.808594 225.03125 273.21875 223.375 C 272.625 221.714844 272.074219 220.042969 271.5625 218.359375 C 271.050781 216.671875 270.582031 214.976562 270.15625 213.269531 C 269.730469 211.5625 269.34375 209.84375 269 208.117188 C 268.65625 206.390625 268.355469 204.65625 268.097656 202.914062 C 267.839844 201.171875 267.625 199.421875 267.453125 197.671875 C 267.28125 195.917969 267.152344 194.164062 267.066406 192.40625 C 266.980469 190.644531 266.933594 188.886719 266.933594 187.125 C 266.933594 185.363281 266.980469 183.605469 267.066406 181.84375 C 267.152344 180.085938 267.28125 178.332031 267.453125 176.578125 C 267.625 174.828125 267.839844 173.078125 268.097656 171.335938 C 268.355469 169.59375 268.65625 167.859375 269 166.132812 C 269.34375 164.40625 269.730469 162.6875 270.15625 160.980469 C 270.582031 159.273438 271.050781 157.578125 271.5625 155.890625 C 272.074219 154.207031 272.625 152.535156 273.21875 150.875 C 273.808594 149.21875 274.441406 147.578125 275.117188 145.949219 C 275.789062 144.324219 276.5 142.714844 277.253906 141.121094 C 278.003906 139.53125 278.796875 137.957031 279.625 136.402344 C 280.453125 134.851562 281.320312 133.320312 282.222656 131.808594 C 283.128906 130.296875 284.070312 128.8125 285.046875 127.347656 C 286.023438 125.882812 287.035156 124.445312 288.082031 123.03125 C 289.128906 121.617188 290.210938 120.226562 291.328125 118.867188 C 292.445312 117.503906 293.59375 116.171875 294.773438 114.867188 C 295.953125 113.5625 297.167969 112.289062 298.410156 111.042969 C 299.652344 109.796875 300.925781 108.582031 302.230469 107.402344 C 303.535156 106.21875 304.863281 105.070312 306.222656 103.953125 C 307.582031 102.835938 308.96875 101.75 310.382812 100.703125 C 311.796875 99.652344 313.234375 98.640625 314.695312 97.660156 C 316.15625 96.683594 317.640625 95.742188 319.152344 94.835938 C 320.660156 93.929688 322.1875 93.0625 323.738281 92.234375 C 325.292969 91.402344 326.863281 90.613281 328.453125 89.859375 C 330.042969 89.105469 331.648438 88.390625 333.273438 87.71875 C 334.898438 87.042969 336.539062 86.410156 338.195312 85.816406 C 339.851562 85.222656 341.519531 84.671875 343.203125 84.160156 C 344.886719 83.648438 346.582031 83.179688 348.285156 82.753906 C 349.992188 82.324219 351.707031 81.9375 353.433594 81.59375 C 355.15625 81.253906 356.890625 80.949219 358.628906 80.691406 C 360.367188 80.433594 362.113281 80.21875 363.863281 80.046875 C 365.613281 79.875 367.367188 79.742188 369.125 79.65625 C 370.882812 79.570312 372.636719 79.527344 374.398438 79.527344 C 376.15625 79.527344 377.914062 79.570312 379.671875 79.65625 C 381.425781 79.742188 383.179688 79.875 384.929688 80.046875 C 386.679688 80.21875 388.425781 80.433594 390.164062 80.691406 C 391.90625 80.949219 393.636719 81.253906 395.363281 81.59375 C 397.085938 81.9375 398.800781 82.324219 400.507812 82.753906 C 402.214844 83.179688 403.910156 83.648438 405.59375 84.160156 C 407.273438 84.671875 408.945312 85.222656 410.601562 85.816406 C 412.257812 86.410156 413.894531 87.042969 415.519531 87.71875 C 417.144531 88.390625 418.753906 89.105469 420.34375 89.859375 C 421.933594 90.613281 423.503906 91.402344 425.054688 92.234375 C 426.605469 93.0625 428.136719 93.929688 429.644531 94.835938 C 431.152344 95.742188 432.636719 96.683594 434.101562 97.660156 C 435.5625 98.640625 437 99.652344 438.414062 100.703125 C 439.824219 101.75 441.210938 102.835938 442.570312 103.953125 C 443.929688 105.070312 445.261719 106.21875 446.5625 107.402344 C 447.867188 108.582031 449.140625 109.796875 450.382812 111.042969 C 451.628906 112.289062 452.839844 113.5625 454.019531 114.867188 C 455.203125 116.171875 456.351562 117.503906 457.464844 118.867188 C 458.582031 120.226562 459.664062 121.617188 460.710938 123.03125 C 461.757812 124.445312 462.773438 125.882812 463.75 127.347656 C 464.726562 128.8125 465.667969 130.296875 466.570312 131.808594 C 467.472656 133.320312 468.339844 134.851562 469.171875 136.402344 C 470 137.957031 470.789062 139.53125 471.542969 141.121094 C 472.292969 142.714844 473.007812 144.324219 473.679688 145.949219 C 474.351562 147.578125 474.984375 149.21875 475.578125 150.875 C 476.167969 152.535156 476.722656 154.207031 477.230469 155.890625 C 477.742188 157.578125 478.210938 159.273438 478.636719 160.980469 C 479.066406 162.6875 479.453125 164.40625 479.792969 166.132812 C 480.136719 167.859375 480.4375 169.59375 480.695312 171.335938 C 480.953125 173.078125 481.167969 174.828125 481.339844 176.578125 C 481.515625 178.332031 481.644531 180.085938 481.730469 181.84375 C 481.816406 183.605469 481.859375 185.363281 481.859375 187.125 Z M 481.859375 187.125 " fill-opacity="1" fill-rule="nonzero"/><path fill="#d12336" d="M 428.339844 117.132812 C 431.136719 117.386719 436.058594 118.210938 439.390625 122.050781 C 443.226562 125.386719 444.046875 130.3125 444.300781 133.113281 C 444.675781 137.230469 444.757812 139.503906 441.566406 146.355469 C 440.988281 147.589844 440.257812 148.746094 439.410156 149.804688 C 439.765625 149.917969 440.097656 150.078125 440.347656 150.292969 C 442.28125 151.949219 439.007812 153.796875 436.511719 155.207031 C 436.191406 155.386719 435.882812 155.5625 435.601562 155.726562 C 435.472656 155.800781 435.339844 155.878906 435.203125 155.960938 C 433.480469 156.976562 431.472656 158.160156 430.8125 157.480469 C 430.417969 157.070312 430.398438 156.574219 430.535156 156.105469 C 427.257812 157.285156 423.902344 157.480469 421.234375 156.441406 C 421.050781 156.367188 420.875 156.296875 420.703125 156.226562 C 419.109375 155.585938 418.269531 155.246094 417.320312 156.75 C 416.445312 158.132812 417.230469 159.84375 419.285156 161.03125 C 431.109375 167.871094 434.875 171.296875 436.902344 177.054688 C 439.597656 184.714844 439.855469 227.359375 437.257812 236.160156 C 436.277344 239.492188 434.242188 242.21875 432.738281 242.21875 C 431.230469 242.21875 429.042969 243.964844 427.875 246.101562 C 422.558594 255.820312 404.175781 262.71875 367.960938 251.535156 C 339.550781 246.429688 331.742188 246.679688 318.707031 253.109375 C 310.921875 256.953125 307.960938 257.703125 307.960938 255.84375 C 307.960938 254.429688 310.824219 251.621094 314.328125 249.597656 C 317.828125 247.578125 321.667969 243.832031 322.859375 241.273438 C 325.292969 236.042969 327.101562 235.050781 335.777344 238.121094 C 340.792969 239.492188 344.894531 239.035156 344.894531 239.035156 L 352.976562 238.585938 C 353.0625 238.585938 353.105469 238.578125 353.105469 238.578125 L 352.976562 238.585938 C 352.414062 238.578125 349.914062 238.183594 343.984375 232.644531 C 340.5625 229.445312 338.625 227.050781 336.800781 224.769531 C 334.519531 222.941406 332.128906 221 328.9375 217.578125 C 323.402344 211.640625 323.007812 209.132812 323.003906 208.570312 L 323.007812 208.445312 C 323.007812 208.445312 323 208.484375 323.003906 208.570312 L 322.554688 216.664062 C 322.554688 216.664062 322.097656 220.773438 323.464844 225.792969 C 326.53125 234.480469 325.539062 236.289062 320.316406 238.726562 C 317.761719 239.921875 314.019531 243.765625 312 247.269531 C 309.984375 250.777344 307.175781 253.644531 305.765625 253.644531 C 303.90625 253.644531 304.660156 250.679688 308.496094 242.886719 C 314.917969 229.835938 315.167969 222.015625 310.066406 193.570312 C 298.898438 157.3125 305.789062 138.902344 315.492188 133.578125 C 317.628906 132.410156 319.375 130.21875 319.375 128.710938 C 319.375 127.207031 322.097656 125.167969 325.421875 124.183594 C 334.214844 121.582031 376.804688 121.84375 384.457031 124.542969 C 390.207031 126.570312 393.625 130.34375 400.457031 142.179688 C 401.644531 144.238281 403.351562 145.023438 404.734375 144.148438 C 406.234375 143.199219 405.898438 142.359375 405.257812 140.761719 C 405.1875 140.589844 405.117188 140.414062 405.042969 140.226562 C 404.003906 137.558594 404.203125 134.195312 405.378906 130.917969 C 404.910156 131.054688 404.414062 131.035156 404.007812 130.636719 C 403.328125 129.976562 404.507812 127.96875 405.523438 126.242188 C 405.601562 126.105469 405.679688 125.972656 405.757812 125.84375 C 405.921875 125.5625 406.09375 125.253906 406.277344 124.933594 C 407.683594 122.433594 409.53125 119.15625 411.183594 121.089844 C 411.398438 121.339844 411.554688 121.675781 411.671875 122.03125 C 412.730469 121.183594 413.882812 120.449219 415.117188 119.871094 C 421.957031 116.675781 424.230469 116.757812 428.339844 117.132812 Z M 374.917969 143.023438 L 369.945312 141.964844 C 367.210938 141.382812 361.835938 140.1875 357.996094 139.308594 C 354.160156 138.429688 351.015625 138.105469 351.015625 138.585938 C 351.015625 140.003906 366.734375 158.285156 367.953125 158.285156 C 368.5625 158.285156 370.382812 154.855469 371.992188 150.65625 Z M 360.679688 170.332031 C 367.226562 163.90625 367.199219 162.882812 360.417969 159.289062 C 350.402344 153.984375 349.09375 155.082031 352.476562 165.921875 L 355.453125 175.460938 Z M 419.5 191.582031 L 418.441406 186.605469 L 410.820312 189.535156 C 406.628906 191.144531 403.199219 192.964844 403.199219 193.578125 C 403.203125 194.796875 421.460938 210.535156 422.875 210.535156 C 423.355469 210.535156 423.03125 207.390625 422.152344 203.546875 C 421.277344 199.703125 420.082031 194.320312 419.5 191.582031 Z M 402.199219 201.121094 C 398.605469 194.332031 397.585938 194.304688 391.167969 200.859375 L 386.046875 206.089844 L 395.574219 209.074219 C 406.402344 212.460938 407.496094 211.148438 402.199219 201.121094 Z M 402.199219 201.121094 " fill-opacity="1" fill-rule="evenodd"/></svg>