<svg width="1137" height="400" viewBox="0 0 1137 400" fill="none" xmlns="http://www.w3.org/2000/svg">
<circle cx="200" cy="200" r="139" stroke="#D12336" stroke-width="12"/>
<path d="M169.408 60.3027L200 7.38715L230.592 60.3027H169.408Z" stroke="#D12336" stroke-width="7.39458"/>
<path d="M200.151 7.42041L215.012 37.1016L226.157 59.3624H200.151V7.42041Z" fill="#D12336"/>
<path d="M230.592 339.697L200 392.613L169.408 339.697L230.592 339.697Z" stroke="#D12336" stroke-width="7.39458"/>
<path d="M199.849 392.58L184.988 362.898L173.843 340.638L199.849 340.638L199.849 392.58Z" fill="#D12336"/>
<path d="M339.697 169.408L392.613 200L339.697 230.592L339.697 169.408Z" stroke="#D12336" stroke-width="7.39458"/>
<path d="M392.58 200.151L362.899 215.012L340.638 226.157L340.638 200.151L392.58 200.151Z" fill="#D12336"/>
<path d="M60.3027 230.592L7.38715 200L60.3027 169.408L60.3027 230.592Z" stroke="#D12336" stroke-width="7.39458"/>
<path d="M7.42041 199.849L37.1016 184.988L59.3624 173.843L59.3624 199.849L7.42041 199.849Z" fill="#D12336"/>
<path fill-rule="evenodd" clip-rule="evenodd" d="M149.672 362.535C122.596 354.164 98.036 339.17 78.2162 318.912C58.3963 298.654 43.943 273.772 36.165 246.519L43.8579 244.324C51.2706 270.297 65.0453 294.011 83.9345 313.317C102.824 332.624 126.231 346.914 152.035 354.892L149.672 362.535Z" fill="#FFB401"/>
<path d="M60.8993 339.101L70.7988 309.402L90.5978 329.201L60.8993 339.101Z" fill="#FFB401"/>
<path fill-rule="evenodd" clip-rule="evenodd" d="M37.4652 149.672C45.8369 122.596 60.8307 98.0355 81.0886 78.2157C101.346 58.3959 126.229 43.9425 153.481 36.1646L155.677 43.8574C129.704 51.2701 105.99 65.0448 86.6833 83.934C67.3766 102.823 53.0869 126.23 45.1082 152.035L37.4652 149.672Z" fill="#FFB401"/>
<path d="M60.8995 60.8993L90.598 70.7988L70.799 90.5978L60.8995 60.8993Z" fill="#FFB401"/>
<path fill-rule="evenodd" clip-rule="evenodd" d="M250.328 37.4647C277.404 45.8365 301.964 60.8302 321.784 81.0881C341.604 101.346 356.057 126.228 363.835 153.481L356.142 155.676C348.729 129.703 334.955 105.989 316.066 86.6828C297.176 67.3761 273.769 53.0864 247.965 45.1077L250.328 37.4647Z" fill="#FFB401"/>
<path d="M339.101 60.8993L329.201 90.5977L309.402 70.7987L339.101 60.8993Z" fill="#FFB401"/>
<path fill-rule="evenodd" clip-rule="evenodd" d="M362.535 250.328C354.163 277.404 339.169 301.964 318.911 321.784C298.654 341.604 273.771 356.057 246.519 363.835L244.323 356.142C270.296 348.729 294.01 334.955 313.317 316.065C332.623 297.176 346.913 273.769 354.892 247.965L362.535 250.328Z" fill="#FFB401"/>
<path d="M339.101 339.1L309.402 329.201L329.201 309.402L339.101 339.1Z" fill="#FFB401"/>
<circle cx="200" cy="200" r="115" fill="#FFB401"/>
<path fill-rule="evenodd" clip-rule="evenodd" d="M257.728 125.193C260.72 125.465 265.985 126.343 269.553 130.446C273.657 134.015 274.535 139.28 274.807 142.272C275.207 146.672 275.295 149.103 271.879 156.423C271.262 157.746 270.48 158.979 269.573 160.11C269.953 160.235 270.31 160.403 270.577 160.632C272.647 162.402 269.143 164.378 266.472 165.885C266.129 166.078 265.8 166.264 265.498 166.44C265.358 166.522 265.216 166.606 265.071 166.691C263.227 167.776 261.079 169.041 260.375 168.314C259.951 167.878 259.93 167.347 260.076 166.846C256.571 168.105 252.976 168.316 250.124 167.203C249.925 167.125 249.736 167.049 249.556 166.977L249.555 166.977C247.848 166.29 246.949 165.929 245.935 167.534C244.998 169.014 245.838 170.84 248.037 172.111C260.689 179.422 264.721 183.083 266.89 189.236C269.774 197.424 270.051 243.001 267.271 252.409C266.219 255.969 264.042 258.883 262.432 258.883C260.822 258.883 258.48 260.751 257.23 263.036C251.541 273.422 231.866 280.795 193.113 268.842C162.71 263.384 154.351 263.651 140.402 270.525C132.073 274.631 128.904 275.435 128.904 273.448C128.904 271.936 131.969 268.932 135.716 266.773C139.463 264.611 143.57 260.608 144.846 257.875C147.453 252.284 149.385 251.224 158.67 254.505C164.038 255.969 168.429 255.481 168.429 255.481L177.077 255C177.17 255.002 177.213 254.993 177.213 254.993L177.077 255C176.477 254.993 173.799 254.572 167.453 248.649C163.793 245.233 161.718 242.673 159.766 240.234C157.327 238.281 154.767 236.207 151.35 232.546C145.428 226.201 145.007 223.523 144.999 222.922L145.007 222.787C145.007 222.787 144.998 222.83 144.999 222.922L144.519 231.57C144.519 231.57 144.031 235.962 145.495 241.33C148.775 250.615 147.716 252.547 142.125 255.154C139.392 256.43 135.388 260.537 133.227 264.284C131.068 268.03 128.064 271.096 126.552 271.096C124.564 271.096 125.369 267.926 129.474 259.598C136.348 245.649 136.615 237.289 131.158 206.887C119.205 168.134 126.578 148.459 136.964 142.77C139.249 141.52 141.117 139.178 141.117 137.568C141.117 135.957 144.031 133.78 147.591 132.729C156.999 129.948 202.575 130.226 210.764 133.11C216.917 135.279 220.578 139.311 227.889 151.963C229.159 154.162 230.986 155.002 232.466 154.064C234.071 153.051 233.709 152.152 233.023 150.445C232.951 150.265 232.875 150.075 232.797 149.876C231.684 147.023 231.895 143.429 233.154 139.923C232.653 140.07 232.122 140.049 231.685 139.625C230.959 138.921 232.223 136.772 233.309 134.928C233.394 134.784 233.478 134.641 233.559 134.501C233.736 134.199 233.922 133.87 234.115 133.527C235.621 130.857 237.598 127.353 239.367 129.422C239.596 129.69 239.765 130.046 239.89 130.426C241.02 129.52 242.254 128.738 243.577 128.121C250.896 124.705 253.327 124.793 257.728 125.193ZM200.556 152.866L195.237 151.732C192.311 151.111 186.558 149.833 182.449 148.895C178.342 147.955 174.979 147.609 174.979 148.123C174.979 149.635 191.799 169.175 193.102 169.177C193.757 169.177 195.703 165.508 197.424 161.021L200.556 152.866ZM185.321 182.051C192.325 175.184 192.299 174.091 185.039 170.249C174.324 164.578 172.92 165.75 176.541 177.337L179.728 187.535L185.321 182.051ZM248.267 204.763L247.134 199.444L238.978 202.575C234.492 204.296 230.823 206.243 230.823 206.898C230.825 208.201 250.365 225.02 251.877 225.02C252.391 225.02 252.044 221.658 251.105 217.551C250.167 213.441 248.889 207.689 248.267 204.763ZM229.751 214.961C225.908 207.701 224.816 207.675 217.948 214.678L212.465 220.272L222.663 223.459C234.249 227.08 235.421 225.676 229.751 214.961Z" fill="#D12336"/>
<path d="M451.719 178V68.7031H465.313L504.609 114.641L543.984 68.7031H557.578V178H542.422V92.6875L504.609 136.75L466.875 92.6875V178H451.719ZM613.984 163.312V142.141C604.297 145.161 597.604 147.948 593.906 150.5C590.26 153.052 588.438 156.021 588.438 159.406C588.438 162.375 589.375 164.667 591.25 166.281C593.177 167.896 595.859 168.703 599.297 168.703C601.849 168.703 604.349 168.26 606.797 167.375C609.245 166.437 611.641 165.083 613.984 163.312ZM614.531 172.062C610.885 174.615 607.422 176.464 604.141 177.609C600.911 178.703 597.422 179.25 593.672 179.25C587.214 179.25 582.161 177.714 578.516 174.641C574.87 171.516 573.047 167.245 573.047 161.828C573.047 156.724 575.026 152.245 578.984 148.391C582.943 144.536 588.906 141.281 596.875 138.625L613.984 132.922C614.037 132.505 614.063 132.089 614.063 131.672C614.115 131.255 614.141 130.656 614.141 129.875C614.141 125.552 613.073 122.453 610.938 120.578C608.854 118.651 605.391 117.687 600.547 117.687C596.536 117.687 592.396 118.547 588.125 120.266C583.854 121.932 579.583 124.432 575.313 127.766V113.547C579.01 110.526 583.151 108.26 587.734 106.75C592.318 105.187 597.188 104.406 602.344 104.406C611.615 104.406 618.359 106.464 622.578 110.578C626.797 114.641 628.906 121.229 628.906 130.344V160.891C628.906 163.443 629.115 165.266 629.531 166.359C630 167.401 630.755 167.922 631.797 167.922C632.682 167.922 633.594 167.687 634.531 167.219C635.521 166.75 637.109 165.656 639.297 163.937V172.687C636.693 174.927 634.063 176.594 631.406 177.687C628.75 178.729 625.99 179.25 623.125 179.25C620.365 179.25 618.281 178.677 616.875 177.531C615.521 176.385 614.74 174.562 614.531 172.062ZM648.203 178V68.7031H662.578V114.641C666.172 111.203 669.74 108.703 673.281 107.141C676.875 105.526 680.729 104.719 684.844 104.719C692.708 104.719 698.906 106.984 703.438 111.516C707.969 116.047 710.234 122.271 710.234 130.187V178H695.703V133.859C695.703 127.974 694.479 123.651 692.031 120.891C689.635 118.13 685.859 116.75 680.703 116.75C676.901 116.75 673.568 117.479 670.703 118.937C667.839 120.396 665.13 122.74 662.578 125.969V178H648.203ZM763.516 163.312V142.141C753.828 145.161 747.135 147.948 743.438 150.5C739.792 153.052 737.969 156.021 737.969 159.406C737.969 162.375 738.906 164.667 740.781 166.281C742.708 167.896 745.391 168.703 748.828 168.703C751.38 168.703 753.88 168.26 756.328 167.375C758.776 166.437 761.172 165.083 763.516 163.312ZM764.063 172.062C760.417 174.615 756.953 176.464 753.672 177.609C750.443 178.703 746.953 179.25 743.203 179.25C736.745 179.25 731.693 177.714 728.047 174.641C724.401 171.516 722.578 167.245 722.578 161.828C722.578 156.724 724.557 152.245 728.516 148.391C732.474 144.536 738.438 141.281 746.406 138.625L763.516 132.922C763.568 132.505 763.594 132.089 763.594 131.672C763.646 131.255 763.672 130.656 763.672 129.875C763.672 125.552 762.604 122.453 760.469 120.578C758.385 118.651 754.922 117.687 750.078 117.687C746.068 117.687 741.927 118.547 737.656 120.266C733.385 121.932 729.115 124.432 724.844 127.766V113.547C728.542 110.526 732.682 108.26 737.266 106.75C741.849 105.187 746.719 104.406 751.875 104.406C761.146 104.406 767.891 106.464 772.109 110.578C776.328 114.641 778.438 121.229 778.438 130.344V160.891C778.438 163.443 778.646 165.266 779.063 166.359C779.531 167.401 780.287 167.922 781.328 167.922C782.214 167.922 783.125 167.687 784.063 167.219C785.052 166.75 786.641 165.656 788.828 163.937V172.687C786.224 174.927 783.594 176.594 780.938 177.687C778.281 178.729 775.521 179.25 772.656 179.25C769.896 179.25 767.813 178.677 766.406 177.531C765.052 176.385 764.271 174.562 764.063 172.062ZM833.203 178.781L785.078 68.7031H801.406L835.469 146.672L870.234 68.7031H886.328L837.266 178.781H833.203ZM918.985 163.312V142.141C909.297 145.161 902.604 147.948 898.906 150.5C895.261 153.052 893.438 156.021 893.438 159.406C893.438 162.375 894.375 164.667 896.25 166.281C898.177 167.896 900.86 168.703 904.297 168.703C906.849 168.703 909.349 168.26 911.797 167.375C914.245 166.437 916.641 165.083 918.985 163.312ZM919.531 172.062C915.886 174.615 912.422 176.464 909.141 177.609C905.912 178.703 902.422 179.25 898.672 179.25C892.214 179.25 887.162 177.714 883.516 174.641C879.87 171.516 878.047 167.245 878.047 161.828C878.047 156.724 880.026 152.245 883.984 148.391C887.943 144.536 893.906 141.281 901.875 138.625L918.985 132.922C919.037 132.505 919.063 132.089 919.063 131.672C919.115 131.255 919.141 130.656 919.141 129.875C919.141 125.552 918.073 122.453 915.938 120.578C913.854 118.651 910.391 117.687 905.547 117.687C901.537 117.687 897.396 118.547 893.125 120.266C888.854 121.932 884.583 124.432 880.313 127.766V113.547C884.011 110.526 888.151 108.26 892.735 106.75C897.318 105.187 902.188 104.406 907.344 104.406C916.615 104.406 923.36 106.464 927.578 110.578C931.797 114.641 933.906 121.229 933.906 130.344V160.891C933.906 163.443 934.115 165.266 934.531 166.359C935 167.401 935.755 167.922 936.797 167.922C937.682 167.922 938.594 167.687 939.531 167.219C940.521 166.75 942.11 165.656 944.297 163.937V172.687C941.693 174.927 939.063 176.594 936.406 177.687C933.75 178.729 930.99 179.25 928.125 179.25C925.365 179.25 923.281 178.677 921.875 177.531C920.521 176.385 919.74 174.562 919.531 172.062ZM948.203 173.078V157.687C952.526 160.552 956.693 162.74 960.703 164.25C964.714 165.76 968.386 166.516 971.719 166.516C975.417 166.516 978.307 165.839 980.391 164.484C982.526 163.078 983.594 161.177 983.594 158.781C983.594 155.76 979.662 152.297 971.797 148.391C969.505 147.245 967.735 146.333 966.485 145.656C959.766 142.219 955.156 138.911 952.656 135.734C950.156 132.505 948.906 128.573 948.906 123.937C948.906 117.896 951.068 113.104 955.391 109.562C959.714 106.021 965.651 104.25 973.203 104.25C977.266 104.25 981.172 104.745 984.922 105.734C988.672 106.672 992.344 108.156 995.938 110.187V124.25C991.511 121.802 987.448 120.005 983.75 118.859C980.104 117.661 976.641 117.062 973.36 117.062C970.339 117.062 967.995 117.583 966.328 118.625C964.714 119.667 963.906 121.177 963.906 123.156C963.906 126.802 968.932 131.099 978.985 136.047L980.313 136.672C988.177 140.63 993.307 144.12 995.703 147.141C998.099 150.109 999.297 153.885 999.297 158.469C999.297 164.823 996.901 169.901 992.11 173.703C987.37 177.505 981.068 179.406 973.203 179.406C968.672 179.406 964.349 178.885 960.235 177.844C956.172 176.802 952.162 175.214 948.203 173.078ZM1052.89 175.734C1050.65 176.984 1048.23 177.896 1045.63 178.469C1043.07 179.094 1040.31 179.406 1037.34 179.406C1029.22 179.406 1023.49 177.479 1020.16 173.625C1016.88 169.771 1015.23 162.74 1015.23 152.531V118.312H1002.97V116.906L1028.2 89.0156H1029.84V105.812H1052.42V118.312H1029.84V151.437C1029.84 157.427 1030.57 161.307 1032.03 163.078C1033.54 164.797 1036.33 165.656 1040.39 165.656C1042.58 165.656 1044.71 165.37 1046.8 164.797C1048.88 164.224 1050.91 163.339 1052.89 162.141V175.734ZM1111.8 169.172C1108.2 172.609 1104.61 175.135 1101.02 176.75C1097.47 178.313 1093.65 179.094 1089.53 179.094C1081.67 179.094 1075.47 176.828 1070.94 172.297C1066.41 167.766 1064.14 161.568 1064.14 153.703V105.812H1078.67V150.031C1078.67 155.865 1079.9 160.187 1082.34 163C1084.84 165.76 1088.7 167.141 1093.91 167.141C1097.6 167.141 1100.83 166.437 1103.59 165.031C1106.41 163.573 1109.14 161.177 1111.8 157.844V105.812H1126.17V178H1111.8V169.172Z" fill="#D12336"/>
<path d="M446.094 329.485V308.86C451.042 314.537 455.755 318.625 460.234 321.125C464.766 323.625 469.583 324.875 474.688 324.875C480.104 324.875 484.375 323.625 487.5 321.125C490.625 318.573 492.188 315.136 492.188 310.813C492.188 307.271 491.12 304.172 488.984 301.516C486.901 298.808 481.875 294.927 473.906 289.875C461.563 281.906 453.802 275.735 450.625 271.36C447.5 266.985 445.938 261.776 445.938 255.735C445.938 247.245 448.932 240.292 454.922 234.875C460.964 229.406 468.724 226.672 478.203 226.672C482.422 226.672 486.563 227.297 490.625 228.547C494.74 229.745 498.88 231.62 503.047 234.172V251.906C498.255 248.052 493.828 245.266 489.766 243.547C485.703 241.776 481.641 240.891 477.578 240.891C472.682 240.891 468.672 242.115 465.547 244.563C462.474 246.959 460.938 250.058 460.938 253.86C460.938 259.276 467.37 265.995 480.234 274.016L482.578 275.422C493.047 281.933 499.896 287.688 503.125 292.688C506.354 297.636 507.969 303.781 507.969 311.125C507.969 319.459 504.948 326.36 498.906 331.828C492.865 337.245 485.13 339.953 475.703 339.953C469.818 339.953 464.505 339.12 459.766 337.453C455.026 335.787 450.469 333.13 446.094 329.485ZM558.359 323.313V302.141C548.672 305.162 541.979 307.948 538.281 310.5C534.635 313.052 532.813 316.021 532.813 319.406C532.813 322.375 533.75 324.667 535.625 326.281C537.552 327.896 540.234 328.703 543.672 328.703C546.224 328.703 548.724 328.261 551.172 327.375C553.62 326.438 556.016 325.084 558.359 323.313ZM558.906 332.063C555.26 334.615 551.797 336.464 548.516 337.61C545.286 338.703 541.797 339.25 538.047 339.25C531.589 339.25 526.536 337.714 522.891 334.641C519.245 331.516 517.422 327.245 517.422 321.828C517.422 316.724 519.401 312.245 523.359 308.391C527.318 304.537 533.281 301.281 541.25 298.625L558.359 292.922C558.411 292.505 558.438 292.089 558.438 291.672C558.49 291.255 558.516 290.656 558.516 289.875C558.516 285.552 557.448 282.453 555.313 280.578C553.229 278.651 549.766 277.688 544.922 277.688C540.911 277.688 536.771 278.547 532.5 280.266C528.229 281.933 523.958 284.433 519.688 287.766V273.547C523.385 270.526 527.526 268.261 532.109 266.75C536.693 265.188 541.563 264.406 546.719 264.406C555.99 264.406 562.734 266.464 566.953 270.578C571.172 274.641 573.281 281.229 573.281 290.344V320.891C573.281 323.443 573.49 325.266 573.906 326.36C574.375 327.401 575.13 327.922 576.172 327.922C577.057 327.922 577.969 327.688 578.906 327.219C579.896 326.75 581.484 325.656 583.672 323.938V332.688C581.068 334.927 578.438 336.594 575.781 337.688C573.125 338.729 570.365 339.25 567.5 339.25C564.74 339.25 562.656 338.677 561.25 337.531C559.896 336.386 559.115 334.563 558.906 332.063ZM592.266 338V265.813H606.641V274.641C610.234 271.203 613.802 268.703 617.344 267.141C620.938 265.526 624.792 264.719 628.906 264.719C636.719 264.719 642.865 266.985 647.344 271.516C651.875 276.047 654.141 282.271 654.141 290.188V338H639.766V293.86C639.766 288.026 638.516 283.729 636.016 280.969C633.568 278.156 629.74 276.75 624.531 276.75C620.833 276.75 617.578 277.479 614.766 278.938C612.005 280.344 609.297 282.688 606.641 285.969V338H592.266ZM711.953 335.735C709.714 336.985 707.292 337.896 704.688 338.469C702.135 339.094 699.375 339.406 696.406 339.406C688.281 339.406 682.552 337.479 679.219 333.625C675.938 329.771 674.297 322.74 674.297 312.531V278.313H662.031V276.906L687.266 249.016H688.906V265.813H711.484V278.313H688.906V311.438C688.906 317.427 689.635 321.308 691.094 323.078C692.604 324.797 695.391 325.656 699.453 325.656C701.641 325.656 703.776 325.37 705.859 324.797C707.943 324.224 709.974 323.339 711.953 322.141V335.735ZM770.859 329.172C767.266 332.61 763.672 335.136 760.078 336.75C756.537 338.313 752.708 339.094 748.594 339.094C740.729 339.094 734.531 336.828 730 332.297C725.469 327.766 723.203 321.568 723.203 313.703V265.813H737.734V310.031C737.734 315.865 738.958 320.188 741.406 323C743.906 325.761 747.761 327.141 752.969 327.141C756.667 327.141 759.896 326.438 762.656 325.031C765.469 323.573 768.203 321.177 770.859 317.844V265.813H785.234V338H770.859V329.172ZM803.984 338V228.703H818.36V338H803.984ZM872.735 323.313V302.141C863.047 305.162 856.354 307.948 852.656 310.5C849.011 313.052 847.188 316.021 847.188 319.406C847.188 322.375 848.125 324.667 850 326.281C851.927 327.896 854.61 328.703 858.047 328.703C860.599 328.703 863.099 328.261 865.547 327.375C867.995 326.438 870.391 325.084 872.735 323.313ZM873.281 332.063C869.636 334.615 866.172 336.464 862.891 337.61C859.662 338.703 856.172 339.25 852.422 339.25C845.964 339.25 840.912 337.714 837.266 334.641C833.62 331.516 831.797 327.245 831.797 321.828C831.797 316.724 833.776 312.245 837.734 308.391C841.693 304.537 847.656 301.281 855.625 298.625L872.735 292.922C872.787 292.505 872.813 292.089 872.813 291.672C872.865 291.255 872.891 290.656 872.891 289.875C872.891 285.552 871.823 282.453 869.688 280.578C867.604 278.651 864.141 277.688 859.297 277.688C855.287 277.688 851.146 278.547 846.875 280.266C842.604 281.933 838.333 284.433 834.063 287.766V273.547C837.761 270.526 841.901 268.261 846.485 266.75C851.068 265.188 855.938 264.406 861.094 264.406C870.365 264.406 877.11 266.464 881.328 270.578C885.547 274.641 887.656 281.229 887.656 290.344V320.891C887.656 323.443 887.865 325.266 888.281 326.36C888.75 327.401 889.505 327.922 890.547 327.922C891.432 327.922 892.344 327.688 893.281 327.219C894.271 326.75 895.86 325.656 898.047 323.938V332.688C895.443 334.927 892.813 336.594 890.156 337.688C887.5 338.729 884.74 339.25 881.875 339.25C879.115 339.25 877.031 338.677 875.625 337.531C874.271 336.386 873.49 334.563 873.281 332.063ZM906.641 338V265.813H921.016V274.641C924.61 271.203 928.177 268.703 931.719 267.141C935.313 265.526 939.167 264.719 943.281 264.719C951.094 264.719 957.24 266.985 961.719 271.516C966.25 276.047 968.516 282.271 968.516 290.188V338H954.141V293.86C954.141 288.026 952.891 283.729 950.391 280.969C947.943 278.156 944.115 276.75 938.906 276.75C935.208 276.75 931.953 277.479 929.141 278.938C926.38 280.344 923.672 282.688 921.016 285.969V338H906.641Z" fill="#D12336"/>
</svg>
