<svg width="400" height="400" viewBox="0 0 400 400" fill="none" xmlns="http://www.w3.org/2000/svg">
<circle cx="200" cy="200" r="139" stroke="#D12336" stroke-width="12"/>
<path d="M169.408 60.3027L200 7.38715L230.592 60.3027H169.408Z" stroke="#D12336" stroke-width="7.39458"/>
<path d="M200.151 7.42041L215.012 37.1016L226.157 59.3624H200.151V7.42041Z" fill="#D12336"/>
<path d="M230.592 339.697L200 392.613L169.408 339.697L230.592 339.697Z" stroke="#D12336" stroke-width="7.39458"/>
<path d="M199.849 392.58L184.988 362.898L173.843 340.638L199.849 340.638L199.849 392.58Z" fill="#D12336"/>
<path d="M339.697 169.408L392.613 200L339.697 230.592L339.697 169.408Z" stroke="#D12336" stroke-width="7.39458"/>
<path d="M392.58 200.151L362.899 215.012L340.638 226.157L340.638 200.151L392.58 200.151Z" fill="#D12336"/>
<path d="M60.3027 230.592L7.38715 200L60.3027 169.408L60.3027 230.592Z" stroke="#D12336" stroke-width="7.39458"/>
<path d="M7.41992 199.849L37.1011 184.988L59.3619 173.843L59.3619 199.849L7.41992 199.849Z" fill="#D12336"/>
<path fill-rule="evenodd" clip-rule="evenodd" d="M149.672 362.535C122.596 354.164 98.036 339.17 78.2162 318.912C58.3963 298.654 43.943 273.772 36.165 246.519L43.8579 244.324C51.2706 270.297 65.0453 294.011 83.9345 313.317C102.824 332.624 126.231 346.914 152.035 354.892L149.672 362.535Z" fill="#FFB401"/>
<path d="M60.8993 339.101L70.7988 309.402L90.5978 329.201L60.8993 339.101Z" fill="#FFB401"/>
<path fill-rule="evenodd" clip-rule="evenodd" d="M37.4652 149.672C45.8369 122.596 60.8307 98.0355 81.0886 78.2157C101.346 58.3959 126.229 43.9425 153.481 36.1646L155.677 43.8574C129.704 51.2701 105.99 65.0448 86.6833 83.934C67.3766 102.823 53.0869 126.23 45.1082 152.035L37.4652 149.672Z" fill="#FFB401"/>
<path d="M60.8995 60.8993L90.598 70.7988L70.799 90.5978L60.8995 60.8993Z" fill="#FFB401"/>
<path fill-rule="evenodd" clip-rule="evenodd" d="M250.328 37.4647C277.404 45.8365 301.964 60.8302 321.784 81.0881C341.604 101.346 356.057 126.228 363.835 153.481L356.142 155.676C348.729 129.703 334.955 105.989 316.066 86.6828C297.176 67.3761 273.769 53.0864 247.965 45.1077L250.328 37.4647Z" fill="#FFB401"/>
<path d="M339.101 60.8993L329.201 90.5977L309.402 70.7987L339.101 60.8993Z" fill="#FFB401"/>
<path fill-rule="evenodd" clip-rule="evenodd" d="M362.535 250.328C354.163 277.404 339.169 301.964 318.911 321.784C298.654 341.604 273.771 356.057 246.519 363.835L244.323 356.142C270.296 348.729 294.01 334.955 313.317 316.065C332.623 297.176 346.913 273.769 354.892 247.965L362.535 250.328Z" fill="#FFB401"/>
<path d="M339.101 339.1L309.402 329.201L329.201 309.402L339.101 339.1Z" fill="#FFB401"/>
<circle cx="200" cy="200" r="115" fill="#FFB401"/>
<path fill-rule="evenodd" clip-rule="evenodd" d="M257.728 125.193C260.72 125.465 265.985 126.343 269.553 130.446C273.657 134.015 274.535 139.28 274.807 142.272C275.207 146.672 275.295 149.103 271.879 156.423C271.262 157.746 270.48 158.979 269.573 160.11C269.953 160.235 270.31 160.403 270.577 160.632C272.647 162.402 269.143 164.378 266.472 165.885C266.129 166.078 265.8 166.264 265.498 166.44C265.358 166.522 265.216 166.606 265.071 166.691C263.227 167.776 261.079 169.041 260.375 168.314C259.951 167.878 259.93 167.347 260.076 166.846C256.571 168.105 252.976 168.316 250.124 167.203C249.925 167.125 249.736 167.049 249.556 166.977L249.555 166.977C247.848 166.29 246.949 165.929 245.935 167.534C244.998 169.014 245.838 170.84 248.037 172.111C260.689 179.422 264.721 183.083 266.89 189.236C269.774 197.424 270.051 243.001 267.271 252.409C266.219 255.969 264.042 258.883 262.432 258.883C260.822 258.883 258.48 260.751 257.23 263.036C251.541 273.422 231.866 280.795 193.113 268.842C162.71 263.384 154.351 263.651 140.402 270.525C132.073 274.631 128.904 275.435 128.904 273.448C128.904 271.936 131.969 268.932 135.716 266.773C139.463 264.611 143.57 260.608 144.846 257.875C147.453 252.284 149.385 251.224 158.67 254.505C164.038 255.969 168.429 255.481 168.429 255.481L177.077 255C177.17 255.002 177.213 254.993 177.213 254.993L177.077 255C176.477 254.993 173.799 254.572 167.453 248.649C163.793 245.233 161.718 242.673 159.766 240.234C157.327 238.281 154.767 236.207 151.35 232.546C145.428 226.201 145.007 223.523 144.999 222.922L145.007 222.787C145.007 222.787 144.998 222.83 144.999 222.922L144.519 231.57C144.519 231.57 144.031 235.962 145.495 241.33C148.775 250.615 147.716 252.547 142.125 255.154C139.392 256.43 135.388 260.537 133.227 264.284C131.068 268.03 128.064 271.096 126.552 271.096C124.564 271.096 125.369 267.926 129.474 259.598C136.348 245.649 136.615 237.289 131.158 206.887C119.205 168.134 126.578 148.459 136.964 142.77C139.249 141.52 141.117 139.178 141.117 137.568C141.117 135.957 144.031 133.78 147.591 132.729C156.999 129.948 202.575 130.226 210.764 133.11C216.917 135.279 220.578 139.311 227.889 151.963C229.159 154.162 230.986 155.002 232.466 154.064C234.071 153.051 233.709 152.152 233.023 150.445C232.951 150.265 232.875 150.075 232.797 149.876C231.684 147.023 231.895 143.429 233.154 139.923C232.653 140.07 232.122 140.049 231.685 139.625C230.959 138.921 232.223 136.772 233.309 134.928C233.394 134.784 233.478 134.641 233.559 134.501C233.736 134.199 233.922 133.87 234.115 133.527C235.621 130.857 237.598 127.353 239.367 129.422C239.596 129.69 239.765 130.046 239.89 130.426C241.02 129.52 242.254 128.738 243.577 128.121C250.896 124.705 253.327 124.793 257.728 125.193ZM200.556 152.866L195.237 151.732C192.311 151.111 186.558 149.833 182.449 148.895C178.342 147.955 174.979 147.609 174.979 148.123C174.979 149.635 191.799 169.175 193.102 169.177C193.757 169.177 195.703 165.508 197.424 161.021L200.556 152.866ZM185.321 182.051C192.325 175.184 192.299 174.091 185.039 170.249C174.324 164.578 172.92 165.75 176.541 177.337L179.728 187.535L185.321 182.051ZM248.267 204.763L247.134 199.444L238.978 202.575C234.492 204.296 230.823 206.243 230.823 206.898C230.825 208.201 250.365 225.02 251.877 225.02C252.391 225.02 252.044 221.658 251.105 217.551C250.167 213.441 248.889 207.689 248.267 204.763ZM229.751 214.961C225.908 207.701 224.816 207.675 217.948 214.678L212.465 220.272L222.663 223.459C234.249 227.08 235.421 225.676 229.751 214.961Z" fill="#D12336"/>
</svg>
