<svg width="205" height="72" viewBox="0 0 205 72" fill="none" xmlns="http://www.w3.org/2000/svg">
<circle cx="36.0005" cy="36" r="25.02" stroke="white" stroke-width="2.16"/>
<path d="M30.4933 10.8545L35.9998 1.32969L41.5064 10.8545H30.4933Z" stroke="white" stroke-width="1.33102"/>
<path d="M36.0273 1.33545L38.7022 6.67806L40.7084 10.685H36.0273V1.33545Z" fill="white"/>
<path d="M41.5067 61.1455L36.0002 70.6703L30.4936 61.1455L41.5067 61.1455Z" stroke="white" stroke-width="1.33102"/>
<path d="M35.9727 70.6646L33.2978 65.3219L31.2916 61.315L35.9727 61.315L35.9727 70.6646Z" fill="white"/>
<path d="M61.1455 30.4933L70.6703 35.9998L61.1455 41.5064L61.1455 30.4933Z" stroke="white" stroke-width="1.33102"/>
<path d="M70.6641 36.0273L65.3215 38.7022L61.3145 40.7084L61.3145 36.0273L70.6641 36.0273Z" fill="white"/>
<path d="M10.8545 41.5067L1.32969 36.0002L10.8545 30.4936L10.8545 41.5067Z" stroke="white" stroke-width="1.33102"/>
<path d="M1.33594 35.9727L6.67855 33.2978L10.6855 31.2916L10.6855 35.9727L1.33594 35.9727Z" fill="white"/>
<path fill-rule="evenodd" clip-rule="evenodd" d="M26.9411 65.2566C22.0674 63.7497 17.6465 61.0508 14.079 57.4044C10.5114 53.758 7.9098 49.2792 6.50977 44.3737L7.89448 43.9785C9.22877 48.6537 11.7082 52.9221 15.1083 56.3973C18.5083 59.8725 22.7216 62.4447 27.3664 63.8809L26.9411 65.2566Z" fill="#FFB401"/>
<path d="M10.9622 61.0384L12.7441 55.6927L16.308 59.2565L10.9622 61.0384Z" fill="#FFB401"/>
<path fill-rule="evenodd" clip-rule="evenodd" d="M6.74438 26.9406C8.2513 22.0669 10.9502 17.646 14.5966 14.0785C18.243 10.5109 22.7218 7.90931 27.6273 6.50928L28.0225 7.89399C23.3473 9.22828 19.0788 11.7077 15.6036 15.1078C12.1284 18.5078 9.55628 22.7211 8.12012 27.366L6.74438 26.9406Z" fill="#FFB401"/>
<path d="M10.9626 10.9617L16.3083 12.7437L12.7445 16.3075L10.9626 10.9617Z" fill="#FFB401"/>
<path fill-rule="evenodd" clip-rule="evenodd" d="M45.0589 6.7434C49.9326 8.25032 54.3535 10.9492 57.921 14.5956C61.4886 18.242 64.0902 22.7208 65.4902 27.6263L64.1055 28.0215C62.7712 23.3463 60.2918 19.0779 56.8917 15.6027C53.4917 12.1275 49.2784 9.5553 44.6336 8.11914L45.0589 6.7434Z" fill="#FFB401"/>
<path d="M61.0378 10.9621L59.2559 16.3078L55.692 12.744L61.0378 10.9621Z" fill="#FFB401"/>
<path fill-rule="evenodd" clip-rule="evenodd" d="M65.2556 45.0594C63.7487 49.9331 61.0498 54.354 57.4034 57.9215C53.757 61.4891 49.2782 64.0907 44.3727 65.4907L43.9775 64.106C48.6527 62.7717 52.9212 60.2923 56.3964 56.8922C59.8716 53.4922 62.4437 49.2789 63.8799 44.634L65.2556 45.0594Z" fill="#FFB401"/>
<path d="M61.0374 61.0383L55.6917 59.2563L59.2555 55.6925L61.0374 61.0383Z" fill="#FFB401"/>
<circle cx="35.9998" cy="35.9998" r="20.7" fill="#FFB401"/>
<path fill-rule="evenodd" clip-rule="evenodd" d="M46.391 22.5347C46.9295 22.5837 47.8773 22.7418 48.5196 23.4804C49.2582 24.1227 49.4163 25.0705 49.4653 25.609C49.5373 26.4011 49.5531 26.8386 48.9383 28.1562C48.8271 28.3943 48.6864 28.6163 48.5232 28.8199C48.5916 28.8423 48.6557 28.8726 48.7039 28.9139C49.0764 29.2324 48.4457 29.5882 47.965 29.8593C47.9033 29.8941 47.844 29.9275 47.7897 29.9593C47.7645 29.974 47.7389 29.9891 47.7129 30.0044C47.3809 30.1998 46.9942 30.4274 46.8674 30.2966C46.7912 30.218 46.7873 30.1225 46.8137 30.0323C46.1827 30.2589 45.5357 30.2969 45.0224 30.0966C44.9865 30.0826 44.9525 30.0689 44.92 30.0559L44.9199 30.0558C44.6127 29.9323 44.4509 29.8672 44.2684 30.1561C44.0996 30.4225 44.2508 30.7513 44.6466 30.9801C46.924 32.2959 47.6498 32.9549 48.0402 34.0625C48.5594 35.5364 48.6093 43.7403 48.1088 45.4337C47.9195 46.0744 47.5276 46.5989 47.2378 46.5989C46.9479 46.5989 46.5263 46.9352 46.3014 47.3465C45.2774 49.2159 41.7358 50.5432 34.7603 48.3916C29.2878 47.4092 27.7832 47.4573 25.2724 48.6946C23.7732 49.4336 23.2027 49.5784 23.2027 49.2206C23.2027 48.9485 23.7545 48.4078 24.4289 48.0191C25.1033 47.6301 25.8426 46.9094 26.0723 46.4175C26.5415 45.4111 26.8893 45.2204 28.5606 45.8109C29.5268 46.0744 30.3173 45.9866 30.3173 45.9866L31.8739 45.9001C31.8905 45.9003 31.8983 45.8988 31.8983 45.8988L31.8739 45.9001C31.7658 45.8988 31.2838 45.8229 30.1416 44.7569C29.4827 44.1419 29.1093 43.6812 28.7579 43.2421C28.3188 42.8907 27.8581 42.5173 27.2431 41.8584C26.1771 40.7162 26.1012 40.2342 26.0999 40.1261L26.1012 40.1017C26.1012 40.1017 26.0997 40.1095 26.0999 40.1261L26.0134 41.6827C26.0134 41.6827 25.9256 42.4732 26.1891 43.4394C26.7796 45.1107 26.5889 45.4585 25.5825 45.9277C25.0906 46.1574 24.3699 46.8967 23.9809 47.5711C23.5922 48.2455 23.0515 48.7973 22.7794 48.7973C22.4216 48.7973 22.5664 48.2268 23.3054 46.7276C24.5427 44.2168 24.5908 42.7122 23.6084 37.2397C21.4568 30.2642 22.7841 26.7226 24.6535 25.6986C25.0648 25.4737 25.4011 25.0521 25.4011 24.7622C25.4011 24.4724 25.9256 24.0805 26.5663 23.8912C28.2597 23.3907 36.4636 23.4406 37.9375 23.9598C39.0451 24.3502 39.7041 25.0759 41.0199 27.3534C41.2487 27.7492 41.5775 27.9004 41.8439 27.7316C42.1328 27.5491 42.0677 27.3874 41.9442 27.0802C41.9311 27.0477 41.9174 27.0136 41.9034 26.9776C41.7031 26.4643 41.7411 25.8173 41.9677 25.1863C41.8775 25.2127 41.782 25.2088 41.7034 25.1326C41.5726 25.0058 41.8002 24.6191 41.9956 24.2871C42.0109 24.2611 42.026 24.2355 42.0407 24.2103C42.0725 24.156 42.1059 24.0967 42.1407 24.035C42.4118 23.5543 42.7676 22.9235 43.0861 23.2961C43.1274 23.3443 43.1577 23.4084 43.1801 23.4768C43.3837 23.3136 43.6057 23.1729 43.8438 23.0617C45.1614 22.4469 45.5989 22.4627 46.391 22.5347ZM36.1 27.5159L35.1427 27.3119C34.616 27.2 33.5805 26.9699 32.8408 26.8012C32.1015 26.632 31.4963 26.5696 31.4963 26.6621C31.4963 26.9343 34.5238 30.4515 34.7583 30.4519C34.8763 30.4519 35.2266 29.7915 35.5364 28.9839L36.1 27.5159ZM33.3579 32.7693C34.6185 31.5332 34.6138 31.3365 33.307 30.6449C31.3783 29.6242 31.1256 29.8351 31.7774 31.9206L32.3511 33.7563L33.3579 32.7693ZM44.6881 36.8573L44.4841 35.9L43.0161 36.4636C42.2085 36.7734 41.5481 37.1237 41.5481 37.2417C41.5485 37.4762 45.0657 40.5037 45.3379 40.5037C45.4304 40.5037 45.368 39.8985 45.1988 39.1592C45.0301 38.4195 44.8 37.384 44.6881 36.8573ZM41.3551 38.693C40.6635 37.3862 40.4668 37.3815 39.2307 38.6421L38.2437 39.6489L40.0794 40.2226C42.1649 40.8744 42.3758 40.6217 41.3551 38.693Z" fill="#D12336"/>
<path d="M81.3096 32.2002V12.5268H83.7564L90.8299 20.7955L97.9174 12.5268H100.364V32.2002H97.6361V16.8439L90.8299 24.7752L84.0377 16.8439V32.2002H81.3096ZM110.517 29.5564V25.7455C108.774 26.2893 107.569 26.7908 106.903 27.2502C106.247 27.7096 105.919 28.2439 105.919 28.8533C105.919 29.3877 106.088 29.8002 106.425 30.0908C106.772 30.3814 107.255 30.5268 107.874 30.5268C108.333 30.5268 108.783 30.4471 109.224 30.2877C109.664 30.1189 110.096 29.8752 110.517 29.5564ZM110.616 31.1314C109.96 31.5908 109.336 31.9236 108.746 32.1299C108.164 32.3268 107.536 32.4252 106.861 32.4252C105.699 32.4252 104.789 32.1486 104.133 31.5955C103.477 31.033 103.149 30.2643 103.149 29.2893C103.149 28.3705 103.505 27.5643 104.217 26.8705C104.93 26.1768 106.003 25.5908 107.438 25.1127L110.517 24.0861C110.527 24.0111 110.531 23.9361 110.531 23.8611C110.541 23.7861 110.546 23.6783 110.546 23.5377C110.546 22.7596 110.353 22.2018 109.969 21.8643C109.594 21.5174 108.971 21.3439 108.099 21.3439C107.377 21.3439 106.631 21.4986 105.863 21.808C105.094 22.108 104.325 22.558 103.556 23.158V20.5986C104.222 20.0549 104.967 19.6471 105.792 19.3752C106.617 19.0939 107.494 18.9533 108.422 18.9533C110.091 18.9533 111.305 19.3236 112.064 20.0643C112.824 20.7955 113.203 21.9814 113.203 23.6221V29.1205C113.203 29.5799 113.241 29.908 113.316 30.1049C113.4 30.2924 113.536 30.3861 113.724 30.3861C113.883 30.3861 114.047 30.3439 114.216 30.2596C114.394 30.1752 114.68 29.9783 115.074 29.6689V31.2439C114.605 31.6471 114.131 31.9471 113.653 32.1439C113.175 32.3314 112.678 32.4252 112.163 32.4252C111.666 32.4252 111.291 32.3221 111.038 32.1158C110.794 31.9096 110.653 31.5814 110.616 31.1314ZM116.677 32.2002V12.5268H119.264V20.7955C119.911 20.1768 120.553 19.7268 121.191 19.4455C121.838 19.1549 122.531 19.0096 123.272 19.0096C124.688 19.0096 125.803 19.4174 126.619 20.233C127.435 21.0486 127.842 22.1689 127.842 23.5939V32.2002H125.227V24.2549C125.227 23.1955 125.006 22.4174 124.566 21.9205C124.135 21.4236 123.455 21.1752 122.527 21.1752C121.842 21.1752 121.242 21.3064 120.727 21.5689C120.211 21.8314 119.724 22.2533 119.264 22.8346V32.2002H116.677ZM137.433 29.5564V25.7455C135.689 26.2893 134.485 26.7908 133.819 27.2502C133.163 27.7096 132.835 28.2439 132.835 28.8533C132.835 29.3877 133.003 29.8002 133.341 30.0908C133.688 30.3814 134.171 30.5268 134.789 30.5268C135.249 30.5268 135.699 30.4471 136.139 30.2877C136.58 30.1189 137.011 29.8752 137.433 29.5564ZM137.531 31.1314C136.875 31.5908 136.252 31.9236 135.661 32.1299C135.08 32.3268 134.452 32.4252 133.777 32.4252C132.614 32.4252 131.705 32.1486 131.049 31.5955C130.392 31.033 130.064 30.2643 130.064 29.2893C130.064 28.3705 130.421 27.5643 131.133 26.8705C131.846 26.1768 132.919 25.5908 134.353 25.1127L137.433 24.0861C137.442 24.0111 137.447 23.9361 137.447 23.8611C137.456 23.7861 137.461 23.6783 137.461 23.5377C137.461 22.7596 137.269 22.2018 136.885 21.8643C136.51 21.5174 135.886 21.3439 135.014 21.3439C134.292 21.3439 133.547 21.4986 132.778 21.808C132.01 22.108 131.241 22.558 130.472 23.158V20.5986C131.138 20.0549 131.883 19.6471 132.708 19.3752C133.533 19.0939 134.41 18.9533 135.338 18.9533C137.006 18.9533 138.221 19.3236 138.98 20.0643C139.739 20.7955 140.119 21.9814 140.119 23.6221V29.1205C140.119 29.5799 140.156 29.908 140.231 30.1049C140.316 30.2924 140.452 30.3861 140.639 30.3861C140.799 30.3861 140.963 30.3439 141.131 30.2596C141.31 30.1752 141.596 29.9783 141.989 29.6689V31.2439C141.521 31.6471 141.047 31.9471 140.569 32.1439C140.091 32.3314 139.594 32.4252 139.078 32.4252C138.581 32.4252 138.206 32.3221 137.953 32.1158C137.71 31.9096 137.569 31.5814 137.531 31.1314ZM149.977 32.3408L141.314 12.5268H144.253L150.385 26.5611L156.642 12.5268H159.539L150.708 32.3408H149.977ZM165.417 29.5564V25.7455C163.674 26.2893 162.469 26.7908 161.803 27.2502C161.147 27.7096 160.819 28.2439 160.819 28.8533C160.819 29.3877 160.988 29.8002 161.325 30.0908C161.672 30.3814 162.155 30.5268 162.774 30.5268C163.233 30.5268 163.683 30.4471 164.124 30.2877C164.564 30.1189 164.996 29.8752 165.417 29.5564ZM165.516 31.1314C164.86 31.5908 164.236 31.9236 163.646 32.1299C163.064 32.3268 162.436 32.4252 161.761 32.4252C160.599 32.4252 159.689 32.1486 159.033 31.5955C158.377 31.033 158.049 30.2643 158.049 29.2893C158.049 28.3705 158.405 27.5643 159.117 26.8705C159.83 26.1768 160.903 25.5908 162.338 25.1127L165.417 24.0861C165.427 24.0111 165.431 23.9361 165.431 23.8611C165.441 23.7861 165.446 23.6783 165.446 23.5377C165.446 22.7596 165.253 22.2018 164.869 21.8643C164.494 21.5174 163.871 21.3439 162.999 21.3439C162.277 21.3439 161.531 21.4986 160.763 21.808C159.994 22.108 159.225 22.558 158.456 23.158V20.5986C159.122 20.0549 159.867 19.6471 160.692 19.3752C161.517 19.0939 162.394 18.9533 163.322 18.9533C164.991 18.9533 166.205 19.3236 166.964 20.0643C167.724 20.7955 168.103 21.9814 168.103 23.6221V29.1205C168.103 29.5799 168.141 29.908 168.216 30.1049C168.3 30.2924 168.436 30.3861 168.624 30.3861C168.783 30.3861 168.947 30.3439 169.116 30.2596C169.294 30.1752 169.58 29.9783 169.974 29.6689V31.2439C169.505 31.6471 169.031 31.9471 168.553 32.1439C168.075 32.3314 167.578 32.4252 167.063 32.4252C166.566 32.4252 166.191 32.3221 165.938 32.1158C165.694 31.9096 165.553 31.5814 165.516 31.1314ZM170.677 31.3143V28.5439C171.455 29.0596 172.205 29.4533 172.927 29.7252C173.649 29.9971 174.31 30.133 174.91 30.133C175.575 30.133 176.096 30.0111 176.471 29.7674C176.855 29.5143 177.047 29.1721 177.047 28.7408C177.047 28.1971 176.339 27.5736 174.924 26.8705C174.511 26.6643 174.192 26.5002 173.967 26.3783C172.758 25.7596 171.928 25.1643 171.478 24.5924C171.028 24.0111 170.803 23.3033 170.803 22.4689C170.803 21.3814 171.192 20.5189 171.971 19.8814C172.749 19.2439 173.817 18.9252 175.177 18.9252C175.908 18.9252 176.611 19.0143 177.286 19.1924C177.961 19.3611 178.622 19.6283 179.269 19.9939V22.5252C178.472 22.0846 177.741 21.7611 177.075 21.5549C176.419 21.3393 175.796 21.2314 175.205 21.2314C174.661 21.2314 174.239 21.3252 173.939 21.5127C173.649 21.7002 173.503 21.9721 173.503 22.3283C173.503 22.9846 174.408 23.758 176.217 24.6486L176.456 24.7611C177.872 25.4736 178.796 26.1018 179.227 26.6455C179.658 27.1799 179.874 27.8596 179.874 28.6846C179.874 29.8283 179.442 30.7424 178.58 31.4268C177.727 32.1111 176.592 32.4533 175.177 32.4533C174.361 32.4533 173.583 32.3596 172.842 32.1721C172.111 31.9846 171.389 31.6986 170.677 31.3143ZM189.521 31.7924C189.117 32.0174 188.681 32.1814 188.213 32.2846C187.753 32.3971 187.256 32.4533 186.722 32.4533C185.26 32.4533 184.228 32.1064 183.628 31.4127C183.038 30.7189 182.742 29.4533 182.742 27.6158V21.4564H180.535V21.2033L185.077 16.183H185.372V19.2064H189.436V21.4564H185.372V27.4189C185.372 28.4971 185.503 29.1955 185.766 29.5143C186.038 29.8236 186.539 29.9783 187.271 29.9783C187.664 29.9783 188.049 29.9268 188.424 29.8236C188.799 29.7205 189.164 29.5611 189.521 29.3455V31.7924ZM200.124 30.6111C199.477 31.2299 198.83 31.6846 198.183 31.9752C197.546 32.2564 196.856 32.3971 196.116 32.3971C194.7 32.3971 193.585 31.9893 192.769 31.1736C191.953 30.358 191.546 29.2424 191.546 27.8268V19.2064H194.161V27.1658C194.161 28.2158 194.381 28.9939 194.822 29.5002C195.272 29.9971 195.966 30.2455 196.903 30.2455C197.569 30.2455 198.15 30.1189 198.647 29.8658C199.153 29.6033 199.646 29.1721 200.124 28.5721V19.2064H202.711V32.2002H200.124V30.6111Z" fill="white"/>
<path d="M80.2971 59.4672V55.7547C81.1877 56.7766 82.0361 57.5125 82.8424 57.9625C83.658 58.4125 84.5252 58.6375 85.4439 58.6375C86.4189 58.6375 87.1877 58.4125 87.7502 57.9625C88.3127 57.5031 88.5939 56.8844 88.5939 56.1062C88.5939 55.4687 88.4018 54.9109 88.0174 54.4328C87.6424 53.9453 86.7377 53.2469 85.3033 52.3375C83.0814 50.9031 81.6846 49.7922 81.1127 49.0047C80.5502 48.2172 80.2689 47.2797 80.2689 46.1922C80.2689 44.6641 80.808 43.4125 81.8861 42.4375C82.9736 41.4531 84.3705 40.9609 86.0768 40.9609C86.8361 40.9609 87.5814 41.0734 88.3127 41.2984C89.0533 41.5141 89.7986 41.8516 90.5486 42.3109V45.5031C89.6861 44.8094 88.8893 44.3078 88.158 43.9984C87.4268 43.6797 86.6955 43.5203 85.9643 43.5203C85.083 43.5203 84.3611 43.7406 83.7986 44.1812C83.2455 44.6125 82.9689 45.1703 82.9689 45.8547C82.9689 46.8297 84.1268 48.0391 86.4424 49.4828L86.8643 49.7359C88.7486 50.9078 89.9814 51.9437 90.5627 52.8437C91.1439 53.7344 91.4346 54.8406 91.4346 56.1625C91.4346 57.6625 90.8908 58.9047 89.8033 59.8891C88.7158 60.8641 87.3236 61.3516 85.6268 61.3516C84.5674 61.3516 83.6111 61.2016 82.758 60.9016C81.9049 60.6016 81.0846 60.1234 80.2971 59.4672ZM100.505 58.3562V54.5453C98.7611 55.0891 97.5565 55.5906 96.8908 56.05C96.2346 56.5094 95.9065 57.0437 95.9065 57.6531C95.9065 58.1875 96.0752 58.6 96.4127 58.8906C96.7596 59.1812 97.2424 59.3266 97.8611 59.3266C98.3205 59.3266 98.7705 59.2469 99.2111 59.0875C99.6518 58.9187 100.083 58.675 100.505 58.3562ZM100.603 59.9312C99.9471 60.3906 99.3236 60.7234 98.733 60.9297C98.1518 61.1266 97.5236 61.225 96.8486 61.225C95.6861 61.225 94.7768 60.9484 94.1205 60.3953C93.4643 59.8328 93.1361 59.0641 93.1361 58.0891C93.1361 57.1703 93.4924 56.3641 94.2049 55.6703C94.9174 54.9766 95.9908 54.3906 97.4252 53.9125L100.505 52.8859C100.514 52.8109 100.519 52.7359 100.519 52.6609C100.528 52.5859 100.533 52.4781 100.533 52.3375C100.533 51.5594 100.341 51.0016 99.9565 50.6641C99.5815 50.3172 98.958 50.1437 98.0861 50.1437C97.3643 50.1437 96.619 50.2984 95.8502 50.6078C95.0815 50.9078 94.3127 51.3578 93.544 51.9578V49.3984C94.2096 48.8547 94.9549 48.4469 95.7799 48.175C96.6049 47.8937 97.4815 47.7531 98.4096 47.7531C100.078 47.7531 101.292 48.1234 102.052 48.8641C102.811 49.5953 103.191 50.7812 103.191 52.4219V57.9203C103.191 58.3797 103.228 58.7078 103.303 58.9047C103.388 59.0922 103.524 59.1859 103.711 59.1859C103.871 59.1859 104.035 59.1437 104.203 59.0594C104.381 58.975 104.667 58.7781 105.061 58.4687V60.0437C104.592 60.4469 104.119 60.7469 103.641 60.9437C103.163 61.1313 102.666 61.225 102.15 61.225C101.653 61.225 101.278 61.1219 101.025 60.9156C100.781 60.7094 100.641 60.3812 100.603 59.9312ZM106.608 61V48.0062H109.196V49.5953C109.842 48.9766 110.485 48.5266 111.122 48.2453C111.769 47.9547 112.463 47.8094 113.203 47.8094C114.61 47.8094 115.716 48.2172 116.522 49.0328C117.338 49.8484 117.746 50.9687 117.746 52.3937V61H115.158V53.0547C115.158 52.0047 114.933 51.2312 114.483 50.7344C114.042 50.2281 113.353 49.975 112.416 49.975C111.75 49.975 111.164 50.1062 110.658 50.3687C110.161 50.6219 109.674 51.0437 109.196 51.6344V61H106.608ZM128.152 60.5922C127.749 60.8172 127.313 60.9812 126.844 61.0844C126.385 61.1969 125.888 61.2531 125.353 61.2531C123.891 61.2531 122.86 60.9062 122.26 60.2125C121.669 59.5187 121.374 58.2531 121.374 56.4156V50.2562H119.166V50.0031L123.708 44.9828H124.003V48.0062H128.067V50.2562H124.003V56.2187C124.003 57.2969 124.135 57.9953 124.397 58.3141C124.669 58.6234 125.171 58.7781 125.902 58.7781C126.296 58.7781 126.68 58.7266 127.055 58.6234C127.43 58.5203 127.796 58.3609 128.152 58.1453V60.5922ZM138.755 59.4109C138.108 60.0297 137.461 60.4844 136.814 60.775C136.177 61.0563 135.488 61.1969 134.747 61.1969C133.331 61.1969 132.216 60.7891 131.4 59.9734C130.585 59.1578 130.177 58.0422 130.177 56.6266V48.0062H132.792V55.9656C132.792 57.0156 133.013 57.7937 133.453 58.3C133.903 58.7969 134.597 59.0453 135.535 59.0453C136.2 59.0453 136.781 58.9187 137.278 58.6656C137.785 58.4031 138.277 57.9719 138.755 57.3719V48.0062H141.342V61H138.755V59.4109ZM144.717 61V41.3266H147.305V61H144.717ZM157.092 58.3562V54.5453C155.349 55.0891 154.144 55.5906 153.478 56.05C152.822 56.5094 152.494 57.0437 152.494 57.6531C152.494 58.1875 152.663 58.6 153 58.8906C153.347 59.1812 153.83 59.3266 154.449 59.3266C154.908 59.3266 155.358 59.2469 155.799 59.0875C156.239 58.9187 156.671 58.675 157.092 58.3562ZM157.191 59.9312C156.535 60.3906 155.911 60.7234 155.321 60.9297C154.739 61.1266 154.111 61.225 153.436 61.225C152.274 61.225 151.364 60.9484 150.708 60.3953C150.052 59.8328 149.724 59.0641 149.724 58.0891C149.724 57.1703 150.08 56.3641 150.792 55.6703C151.505 54.9766 152.578 54.3906 154.013 53.9125L157.092 52.8859C157.102 52.8109 157.106 52.7359 157.106 52.6609C157.116 52.5859 157.121 52.4781 157.121 52.3375C157.121 51.5594 156.928 51.0016 156.544 50.6641C156.169 50.3172 155.546 50.1437 154.674 50.1437C153.952 50.1437 153.206 50.2984 152.438 50.6078C151.669 50.9078 150.9 51.3578 150.131 51.9578V49.3984C150.797 48.8547 151.542 48.4469 152.367 48.175C153.192 47.8937 154.069 47.7531 154.997 47.7531C156.666 47.7531 157.88 48.1234 158.639 48.8641C159.399 49.5953 159.778 50.7812 159.778 52.4219V57.9203C159.778 58.3797 159.816 58.7078 159.891 58.9047C159.975 59.0922 160.111 59.1859 160.299 59.1859C160.458 59.1859 160.622 59.1437 160.791 59.0594C160.969 58.975 161.255 58.7781 161.649 58.4687V60.0437C161.18 60.4469 160.706 60.7469 160.228 60.9437C159.75 61.1313 159.253 61.225 158.738 61.225C158.241 61.225 157.866 61.1219 157.613 60.9156C157.369 60.7094 157.228 60.3812 157.191 59.9312ZM163.196 61V48.0062H165.783V49.5953C166.43 48.9766 167.072 48.5266 167.71 48.2453C168.356 47.9547 169.05 47.8094 169.791 47.8094C171.197 47.8094 172.303 48.2172 173.11 49.0328C173.925 49.8484 174.333 50.9687 174.333 52.3937V61H171.746V53.0547C171.746 52.0047 171.521 51.2312 171.071 50.7344C170.63 50.2281 169.941 49.975 169.003 49.975C168.338 49.975 167.752 50.1062 167.246 50.3687C166.749 50.6219 166.261 51.0437 165.783 51.6344V61H163.196Z" fill="white"/>
</svg>
