<svg width="400" height="400" viewBox="0 0 400 400" fill="none" xmlns="http://www.w3.org/2000/svg">
<rect width="400" height="400" rx="100" fill="#D12336"/>
<circle cx="200" cy="200" r="111.2" stroke="white" stroke-width="9.6"/>
<path d="M175.526 88.2422L199.999 45.9097L224.473 88.2422H175.526Z" stroke="white" stroke-width="5.91567"/>
<path d="M200.12 45.9363L212.009 69.6812L220.925 87.4899H200.12V45.9363Z" fill="white"/>
<path d="M224.474 311.758L200.001 354.09L175.527 311.758L224.474 311.758Z" stroke="white" stroke-width="5.91567"/>
<path d="M199.88 354.064L187.991 330.319L179.075 312.51L199.88 312.51L199.88 354.064Z" fill="white"/>
<path d="M311.758 175.526L354.09 200L311.758 224.473L311.758 175.526Z" stroke="white" stroke-width="5.91567"/>
<path d="M354.064 200.121L330.32 212.009L312.511 220.926L312.511 200.121L354.064 200.121Z" fill="white"/>
<path d="M88.2422 224.474L45.9097 200L88.2422 175.527L88.2422 224.474Z" stroke="white" stroke-width="5.91567"/>
<path d="M45.9355 199.879L69.6805 187.991L87.4892 179.074L87.4892 199.879L45.9355 199.879Z" fill="white"/>
<path fill-rule="evenodd" clip-rule="evenodd" d="M159.738 330.028C138.077 323.331 118.429 311.336 102.574 295.129C86.7177 278.923 75.155 259.018 68.9326 237.215L75.0869 235.459C81.0171 256.237 92.0368 275.208 107.148 290.654C122.26 306.099 140.985 317.531 161.629 323.914L159.738 330.028Z" fill="#FFB401"/>
<path d="M88.7201 311.281L96.6396 287.522L112.479 303.361L88.7201 311.281Z" fill="#FFB401"/>
<path fill-rule="evenodd" clip-rule="evenodd" d="M69.9737 159.737C76.6711 138.077 88.6662 118.428 104.872 102.573C121.079 86.7167 140.984 75.154 162.787 68.9316L164.543 75.0859C143.765 81.0161 124.794 92.0359 109.348 107.147C93.9029 122.259 82.4711 140.984 76.0881 161.628L69.9737 159.737Z" fill="#FFB401"/>
<path d="M88.7204 88.7196L112.479 96.6392L96.64 112.478L88.7204 88.7196Z" fill="#FFB401"/>
<path fill-rule="evenodd" clip-rule="evenodd" d="M240.262 69.9718C261.923 76.6692 281.571 88.6642 297.426 104.871C313.282 121.077 324.845 140.982 331.067 162.785L324.913 164.541C318.983 143.763 307.963 124.792 292.852 109.346C277.74 93.9009 259.015 82.4691 238.371 76.0862L240.262 69.9718Z" fill="#FFB401"/>
<path d="M311.28 88.7194L303.36 112.478L287.521 96.639L311.28 88.7194Z" fill="#FFB401"/>
<path fill-rule="evenodd" clip-rule="evenodd" d="M330.026 240.262C323.329 261.923 311.334 281.571 295.128 297.427C278.921 313.283 259.016 324.846 237.213 331.068L235.457 324.914C256.235 318.984 275.206 307.964 290.652 292.853C306.097 277.741 317.529 259.016 323.912 238.372L330.026 240.262Z" fill="#FFB401"/>
<path d="M311.28 311.28L287.521 303.361L303.36 287.521L311.28 311.28Z" fill="#FFB401"/>
<circle cx="200" cy="200" r="92" fill="#FFB401"/>
<path fill-rule="evenodd" clip-rule="evenodd" d="M246.182 140.154C248.576 140.372 252.788 141.074 255.643 144.357C258.925 147.212 259.628 151.424 259.846 153.817C260.166 157.338 260.236 159.283 257.503 165.138C257.01 166.196 256.384 167.183 255.659 168.088C255.963 168.188 256.248 168.323 256.462 168.506C258.118 169.922 255.314 171.503 253.178 172.708C252.904 172.862 252.64 173.011 252.399 173.152C252.287 173.218 252.173 173.285 252.057 173.353C250.582 174.221 248.863 175.232 248.3 174.651C247.961 174.302 247.944 173.878 248.061 173.477C245.257 174.484 242.381 174.653 240.099 173.762C239.94 173.7 239.789 173.639 239.645 173.582L239.644 173.581C238.279 173.032 237.559 172.743 236.748 174.027C235.998 175.211 236.67 176.672 238.43 177.689C248.551 183.537 251.777 186.466 253.512 191.388C255.819 197.939 256.041 234.401 253.817 241.927C252.975 244.775 251.234 247.106 249.946 247.106C248.657 247.106 246.784 248.601 245.784 250.429C241.233 258.737 225.492 264.636 194.49 255.074C170.168 250.707 163.481 250.921 152.322 256.42C145.659 259.705 143.123 260.348 143.123 258.758C143.123 257.548 145.576 255.145 148.573 253.418C151.57 251.689 154.856 248.486 155.877 246.3C157.962 241.827 159.508 240.979 166.936 243.604C171.23 244.775 174.743 244.385 174.743 244.385L181.662 244C181.736 244.001 181.77 243.994 181.77 243.994L181.662 244C181.181 243.994 179.039 243.657 173.963 238.919C171.034 236.186 169.375 234.138 167.813 232.187C165.861 230.625 163.814 228.966 161.08 226.037C156.343 220.961 156.005 218.818 155.999 218.338L156.005 218.229C156.005 218.229 155.999 218.264 155.999 218.338L155.615 225.256C155.615 225.256 155.225 228.77 156.396 233.064C159.02 240.492 158.173 242.037 153.7 244.123C151.514 245.144 148.311 248.43 146.582 251.427C144.854 254.424 142.451 256.877 141.242 256.877C139.651 256.877 140.295 254.341 143.579 247.678C149.079 236.519 149.292 229.832 144.926 205.51C135.364 174.507 141.262 158.767 149.571 154.216C151.399 153.216 152.894 151.342 152.894 150.054C152.894 148.766 155.225 147.024 158.073 146.183C165.599 143.959 202.06 144.18 208.611 146.488C213.534 148.223 216.463 151.448 222.311 161.57C223.327 163.33 224.789 164.002 225.973 163.251C227.257 162.44 226.968 161.721 226.419 160.356C226.361 160.212 226.3 160.06 226.237 159.9C225.347 157.619 225.516 154.743 226.523 151.939C226.122 152.056 225.698 152.039 225.348 151.7C224.767 151.136 225.779 149.418 226.647 147.943C226.715 147.827 226.782 147.713 226.848 147.601C226.989 147.36 227.137 147.096 227.292 146.822C228.497 144.685 230.078 141.882 231.494 143.538C231.677 143.752 231.812 144.037 231.912 144.341C232.816 143.616 233.803 142.99 234.862 142.496C240.717 139.764 242.662 139.834 246.182 140.154ZM200.444 162.293L196.19 161.386C193.849 160.889 189.247 159.866 185.959 159.116C182.673 158.364 179.984 158.087 179.984 158.498C179.984 159.708 193.439 175.34 194.481 175.342C195.006 175.342 196.563 172.406 197.939 168.817L200.444 162.293ZM188.257 185.641C193.86 180.147 193.839 179.273 188.031 176.199C179.459 171.663 178.336 172.6 181.233 181.869L183.783 190.028L188.257 185.641ZM238.614 203.81L237.707 199.555L231.183 202.06C227.593 203.437 224.658 204.994 224.658 205.518C224.66 206.56 240.292 220.016 241.502 220.016C241.913 220.016 241.636 217.326 240.884 214.04C240.134 210.753 239.111 206.151 238.614 203.81ZM223.8 211.969C220.727 206.16 219.853 206.14 214.359 211.743L209.972 216.217L218.131 218.767C227.399 221.664 228.337 220.54 223.8 211.969Z" fill="#D12336"/>
</svg>
