<svg width="777" height="760" viewBox="0 0 777 760" fill="none" xmlns="http://www.w3.org/2000/svg">
<circle cx="388.148" cy="200" r="139" stroke="#D12336" stroke-width="12"/>
<path d="M357.556 60.3027L388.148 7.38715L418.74 60.3027H357.556Z" stroke="#D12336" stroke-width="7.39458"/>
<path d="M388.299 7.42041L403.16 37.1016L414.305 59.3624H388.299V7.42041Z" fill="#D12336"/>
<path d="M418.74 339.697L388.148 392.613L357.556 339.697L418.74 339.697Z" stroke="#D12336" stroke-width="7.39458"/>
<path d="M387.997 392.58L373.136 362.898L361.991 340.638L387.997 340.638L387.997 392.58Z" fill="#D12336"/>
<path d="M527.845 169.408L580.761 200L527.845 230.592L527.845 169.408Z" stroke="#D12336" stroke-width="7.39458"/>
<path d="M580.728 200.151L551.046 215.012L528.786 226.157L528.786 200.151L580.728 200.151Z" fill="#D12336"/>
<path d="M248.451 230.592L195.535 200L248.451 169.408L248.451 230.592Z" stroke="#D12336" stroke-width="7.39458"/>
<path d="M195.568 199.849L225.25 184.988L247.51 173.843L247.51 199.849L195.568 199.849Z" fill="#D12336"/>
<path fill-rule="evenodd" clip-rule="evenodd" d="M337.82 362.535C310.744 354.164 286.183 339.17 266.364 318.912C246.544 298.654 232.09 273.772 224.312 246.519L232.005 244.324C239.418 270.297 253.193 294.011 272.082 313.317C290.971 332.624 314.378 346.914 340.183 354.892L337.82 362.535Z" fill="#FFB401"/>
<path d="M249.047 339.101L258.947 309.402L278.746 329.201L249.047 339.101Z" fill="#FFB401"/>
<path fill-rule="evenodd" clip-rule="evenodd" d="M225.613 149.672C233.984 122.596 248.978 98.0355 269.236 78.2157C289.494 58.3959 314.376 43.9425 341.629 36.1646L343.824 43.8574C317.851 51.2701 294.137 65.0448 274.831 83.934C255.524 102.823 241.234 126.23 233.256 152.035L225.613 149.672Z" fill="#FFB401"/>
<path d="M249.047 60.8993L278.746 70.7988L258.947 90.5978L249.047 60.8993Z" fill="#FFB401"/>
<path fill-rule="evenodd" clip-rule="evenodd" d="M438.476 37.4647C465.552 45.8365 490.112 60.8302 509.932 81.0881C529.752 101.346 544.205 126.228 551.983 153.481L544.291 155.676C536.878 129.703 523.103 105.989 504.214 86.6828C485.325 67.3761 461.918 53.0864 436.113 45.1077L438.476 37.4647Z" fill="#FFB401"/>
<path d="M527.249 60.8993L517.349 90.5977L497.55 70.7987L527.249 60.8993Z" fill="#FFB401"/>
<path fill-rule="evenodd" clip-rule="evenodd" d="M550.683 250.328C542.311 277.404 527.318 301.964 507.06 321.784C486.802 341.604 461.92 356.057 434.667 363.835L432.472 356.142C458.445 348.729 482.158 334.955 501.465 316.065C520.772 297.176 535.062 273.769 543.04 247.965L550.683 250.328Z" fill="#FFB401"/>
<path d="M527.248 339.1L497.55 329.201L517.349 309.402L527.248 339.1Z" fill="#FFB401"/>
<circle cx="388.148" cy="200" r="115" fill="#FFB401"/>
<path fill-rule="evenodd" clip-rule="evenodd" d="M445.876 125.193C448.868 125.465 454.133 126.343 457.701 130.446C461.805 134.015 462.683 139.28 462.955 142.272C463.355 146.672 463.443 149.103 460.027 156.423C459.41 157.746 458.628 158.979 457.721 160.11C458.101 160.235 458.457 160.403 458.725 160.632C460.795 162.402 457.291 164.378 454.62 165.885C454.277 166.078 453.948 166.264 453.646 166.44C453.506 166.522 453.364 166.606 453.219 166.691C451.375 167.776 449.227 169.041 448.523 168.314C448.099 167.878 448.078 167.347 448.224 166.846C444.719 168.105 441.124 168.316 438.272 167.203C438.073 167.125 437.884 167.049 437.704 166.977L437.703 166.977C435.996 166.29 435.097 165.929 434.083 167.534C433.146 169.014 433.985 170.84 436.185 172.111C448.837 179.422 452.869 183.083 455.038 189.236C457.922 197.424 458.199 243.001 455.419 252.409C454.367 255.969 452.19 258.883 450.58 258.883C448.97 258.883 446.628 260.751 445.378 263.036C439.689 273.422 420.013 280.795 381.261 268.842C350.858 263.384 342.499 263.651 328.55 270.525C320.221 274.631 317.052 275.435 317.052 273.448C317.052 271.936 320.117 268.932 323.864 266.773C327.61 264.611 331.718 260.608 332.994 257.875C335.601 252.284 337.533 251.224 346.818 254.505C352.186 255.969 356.577 255.481 356.577 255.481L365.225 255C365.318 255.002 365.361 254.993 365.361 254.993L365.225 255C364.625 254.993 361.947 254.572 355.601 248.649C351.941 245.233 349.866 242.673 347.914 240.234C345.475 238.281 342.915 236.207 339.498 232.546C333.576 226.201 333.155 223.523 333.147 222.922L333.155 222.787C333.155 222.787 333.146 222.83 333.147 222.922L332.667 231.57C332.667 231.57 332.179 235.962 333.643 241.33C336.923 250.615 335.864 252.547 330.273 255.154C327.54 256.43 323.536 260.537 321.375 264.284C319.216 268.03 316.212 271.096 314.7 271.096C312.712 271.096 313.517 267.926 317.622 259.598C324.496 245.649 324.763 237.289 319.305 206.887C307.352 168.134 314.726 148.459 325.112 142.77C327.397 141.52 329.265 139.178 329.265 137.568C329.265 135.957 332.179 133.78 335.739 132.729C345.146 129.948 390.723 130.226 398.912 133.11C405.065 135.279 408.726 139.311 416.036 151.963C417.307 154.162 419.134 155.002 420.614 154.064C422.219 153.051 421.857 152.152 421.171 150.445C421.099 150.265 421.022 150.075 420.945 149.876C419.832 147.023 420.043 143.429 421.302 139.923C420.8 140.07 420.27 140.049 419.833 139.625C419.107 138.921 420.371 136.772 421.457 134.928C421.542 134.784 421.626 134.641 421.707 134.501C421.884 134.199 422.07 133.87 422.263 133.527C423.769 130.857 425.745 127.353 427.515 129.422C427.744 129.69 427.913 130.046 428.037 130.426C429.168 129.52 430.402 128.738 431.725 128.121C439.044 124.705 441.475 124.793 445.876 125.193ZM388.704 152.866L383.385 151.732C380.459 151.111 374.706 149.833 370.597 148.895C366.49 147.955 363.127 147.609 363.127 148.123C363.127 149.635 379.947 169.175 381.25 169.177C381.905 169.177 383.851 165.508 385.572 161.021L388.704 152.866ZM373.469 182.051C380.473 175.184 380.447 174.091 373.187 170.249C362.472 164.578 361.068 165.75 364.689 177.337L367.876 187.535L373.469 182.051ZM436.415 204.763L435.282 199.444L427.126 202.575C422.64 204.296 418.971 206.243 418.971 206.898C418.973 208.201 438.513 225.02 440.025 225.02C440.539 225.02 440.192 221.658 439.253 217.551C438.315 213.441 437.037 207.689 436.415 204.763ZM417.899 214.961C414.056 207.701 412.964 207.675 406.096 214.678L400.613 220.272L410.811 223.459C422.397 227.08 423.569 225.676 417.899 214.961Z" fill="#D12336"/>
<path d="M51.7188 578V468.703H65.3125L104.609 514.641L143.984 468.703H157.578V578H142.422V492.687L104.609 536.75L66.875 492.687V578H51.7188ZM213.984 563.312V542.141C204.297 545.161 197.604 547.948 193.906 550.5C190.26 553.052 188.438 556.021 188.438 559.406C188.438 562.375 189.375 564.667 191.25 566.281C193.177 567.896 195.859 568.703 199.297 568.703C201.849 568.703 204.349 568.26 206.797 567.375C209.245 566.437 211.641 565.083 213.984 563.312ZM214.531 572.062C210.885 574.615 207.422 576.464 204.141 577.609C200.911 578.703 197.422 579.25 193.672 579.25C187.214 579.25 182.161 577.714 178.516 574.641C174.87 571.516 173.047 567.245 173.047 561.828C173.047 556.724 175.026 552.245 178.984 548.391C182.943 544.536 188.906 541.281 196.875 538.625L213.984 532.922C214.037 532.505 214.063 532.089 214.063 531.672C214.115 531.255 214.141 530.656 214.141 529.875C214.141 525.552 213.073 522.453 210.938 520.578C208.854 518.651 205.391 517.687 200.547 517.687C196.536 517.687 192.396 518.547 188.125 520.266C183.854 521.932 179.583 524.432 175.313 527.766V513.547C179.01 510.526 183.151 508.26 187.734 506.75C192.318 505.187 197.188 504.406 202.344 504.406C211.615 504.406 218.359 506.464 222.578 510.578C226.797 514.641 228.906 521.229 228.906 530.344V560.891C228.906 563.443 229.115 565.266 229.531 566.359C230 567.401 230.755 567.922 231.797 567.922C232.682 567.922 233.594 567.687 234.531 567.219C235.521 566.75 237.109 565.656 239.297 563.937V572.687C236.693 574.927 234.063 576.594 231.406 577.687C228.75 578.729 225.99 579.25 223.125 579.25C220.365 579.25 218.281 578.677 216.875 577.531C215.521 576.385 214.74 574.562 214.531 572.062ZM248.203 578V468.703H262.578V514.641C266.172 511.203 269.74 508.703 273.281 507.141C276.875 505.526 280.729 504.719 284.844 504.719C292.708 504.719 298.906 506.984 303.438 511.516C307.969 516.047 310.234 522.271 310.234 530.187V578H295.703V533.859C295.703 527.974 294.479 523.651 292.031 520.891C289.635 518.13 285.859 516.75 280.703 516.75C276.901 516.75 273.568 517.479 270.703 518.937C267.839 520.396 265.13 522.74 262.578 525.969V578H248.203ZM363.516 563.312V542.141C353.828 545.161 347.135 547.948 343.438 550.5C339.792 553.052 337.969 556.021 337.969 559.406C337.969 562.375 338.906 564.667 340.781 566.281C342.708 567.896 345.391 568.703 348.828 568.703C351.38 568.703 353.88 568.26 356.328 567.375C358.776 566.437 361.172 565.083 363.516 563.312ZM364.063 572.062C360.417 574.615 356.953 576.464 353.672 577.609C350.443 578.703 346.953 579.25 343.203 579.25C336.745 579.25 331.693 577.714 328.047 574.641C324.401 571.516 322.578 567.245 322.578 561.828C322.578 556.724 324.557 552.245 328.516 548.391C332.474 544.536 338.438 541.281 346.406 538.625L363.516 532.922C363.568 532.505 363.594 532.089 363.594 531.672C363.646 531.255 363.672 530.656 363.672 529.875C363.672 525.552 362.604 522.453 360.469 520.578C358.385 518.651 354.922 517.687 350.078 517.687C346.068 517.687 341.927 518.547 337.656 520.266C333.385 521.932 329.115 524.432 324.844 527.766V513.547C328.542 510.526 332.682 508.26 337.266 506.75C341.849 505.187 346.719 504.406 351.875 504.406C361.146 504.406 367.891 506.464 372.109 510.578C376.328 514.641 378.438 521.229 378.438 530.344V560.891C378.438 563.443 378.646 565.266 379.063 566.359C379.531 567.401 380.287 567.922 381.328 567.922C382.214 567.922 383.125 567.687 384.063 567.219C385.052 566.75 386.641 565.656 388.828 563.937V572.687C386.224 574.927 383.594 576.594 380.938 577.687C378.281 578.729 375.521 579.25 372.656 579.25C369.896 579.25 367.813 578.677 366.406 577.531C365.052 576.385 364.271 574.562 364.063 572.062ZM433.203 578.781L385.078 468.703H401.406L435.469 546.672L470.234 468.703H486.328L437.266 578.781H433.203ZM518.985 563.312V542.141C509.297 545.161 502.604 547.948 498.906 550.5C495.261 553.052 493.438 556.021 493.438 559.406C493.438 562.375 494.375 564.667 496.25 566.281C498.177 567.896 500.86 568.703 504.297 568.703C506.849 568.703 509.349 568.26 511.797 567.375C514.245 566.437 516.641 565.083 518.985 563.312ZM519.531 572.062C515.886 574.615 512.422 576.464 509.141 577.609C505.912 578.703 502.422 579.25 498.672 579.25C492.214 579.25 487.162 577.714 483.516 574.641C479.87 571.516 478.047 567.245 478.047 561.828C478.047 556.724 480.026 552.245 483.984 548.391C487.943 544.536 493.906 541.281 501.875 538.625L518.985 532.922C519.037 532.505 519.063 532.089 519.063 531.672C519.115 531.255 519.141 530.656 519.141 529.875C519.141 525.552 518.073 522.453 515.938 520.578C513.854 518.651 510.391 517.687 505.547 517.687C501.537 517.687 497.396 518.547 493.125 520.266C488.854 521.932 484.583 524.432 480.313 527.766V513.547C484.011 510.526 488.151 508.26 492.735 506.75C497.318 505.187 502.188 504.406 507.344 504.406C516.615 504.406 523.36 506.464 527.578 510.578C531.797 514.641 533.906 521.229 533.906 530.344V560.891C533.906 563.443 534.115 565.266 534.531 566.359C535 567.401 535.755 567.922 536.797 567.922C537.682 567.922 538.594 567.687 539.531 567.219C540.521 566.75 542.11 565.656 544.297 563.937V572.687C541.693 574.927 539.063 576.594 536.406 577.687C533.75 578.729 530.99 579.25 528.125 579.25C525.365 579.25 523.281 578.677 521.875 577.531C520.521 576.385 519.74 574.562 519.531 572.062ZM548.203 573.078V557.687C552.526 560.552 556.693 562.74 560.703 564.25C564.714 565.76 568.386 566.516 571.719 566.516C575.417 566.516 578.307 565.839 580.391 564.484C582.526 563.078 583.594 561.177 583.594 558.781C583.594 555.76 579.662 552.297 571.797 548.391C569.505 547.245 567.735 546.333 566.485 545.656C559.766 542.219 555.156 538.911 552.656 535.734C550.156 532.505 548.906 528.573 548.906 523.937C548.906 517.896 551.068 513.104 555.391 509.562C559.714 506.021 565.651 504.25 573.203 504.25C577.266 504.25 581.172 504.745 584.922 505.734C588.672 506.672 592.344 508.156 595.938 510.187V524.25C591.511 521.802 587.448 520.005 583.75 518.859C580.104 517.661 576.641 517.062 573.36 517.062C570.339 517.062 567.995 517.583 566.328 518.625C564.714 519.667 563.906 521.177 563.906 523.156C563.906 526.802 568.932 531.099 578.985 536.047L580.313 536.672C588.177 540.63 593.307 544.12 595.703 547.141C598.099 550.109 599.297 553.885 599.297 558.469C599.297 564.823 596.901 569.901 592.11 573.703C587.37 577.505 581.068 579.406 573.203 579.406C568.672 579.406 564.349 578.885 560.235 577.844C556.172 576.802 552.162 575.214 548.203 573.078ZM652.891 575.734C650.651 576.984 648.229 577.896 645.625 578.469C643.073 579.094 640.313 579.406 637.344 579.406C629.219 579.406 623.49 577.479 620.156 573.625C616.875 569.771 615.235 562.74 615.235 552.531V518.312H602.969V516.906L628.203 489.016H629.844V505.812H652.422V518.312H629.844V551.437C629.844 557.427 630.573 561.307 632.031 563.078C633.542 564.797 636.328 565.656 640.391 565.656C642.578 565.656 644.714 565.37 646.797 564.797C648.88 564.224 650.912 563.339 652.891 562.141V575.734ZM711.797 569.172C708.203 572.609 704.61 575.135 701.016 576.75C697.474 578.313 693.646 579.094 689.531 579.094C681.667 579.094 675.469 576.828 670.938 572.297C666.406 567.766 664.141 561.568 664.141 553.703V505.812H678.672V550.031C678.672 555.865 679.896 560.187 682.344 563C684.844 565.76 688.698 567.141 693.906 567.141C697.604 567.141 700.834 566.437 703.594 565.031C706.406 563.573 709.141 561.177 711.797 557.844V505.812H726.172V578H711.797V569.172Z" fill="#D12336"/>
<path d="M125.353 729.484V708.859C130.301 714.536 135.014 718.625 139.494 721.125C144.025 723.625 148.843 724.875 153.947 724.875C159.363 724.875 163.634 723.625 166.759 721.125C169.884 718.573 171.447 715.135 171.447 710.812C171.447 707.271 170.379 704.172 168.244 701.516C166.16 698.807 161.134 694.927 153.166 689.875C140.822 681.906 133.061 675.734 129.884 671.359C126.759 666.984 125.197 661.776 125.197 655.734C125.197 647.245 128.192 640.292 134.181 634.875C140.223 629.406 147.983 626.672 157.462 626.672C161.681 626.672 165.822 627.297 169.884 628.547C173.999 629.745 178.14 631.62 182.306 634.172V651.906C177.515 648.052 173.087 645.266 169.025 643.547C164.962 641.776 160.9 640.891 156.837 640.891C151.942 640.891 147.931 642.115 144.806 644.562C141.733 646.958 140.197 650.057 140.197 653.859C140.197 659.276 146.629 665.995 159.494 674.016L161.837 675.422C172.306 681.932 179.155 687.687 182.384 692.687C185.613 697.635 187.228 703.781 187.228 711.125C187.228 719.458 184.207 726.359 178.166 731.828C172.124 737.245 164.389 739.953 154.962 739.953C149.077 739.953 143.764 739.12 139.025 737.453C134.285 735.786 129.728 733.13 125.353 729.484ZM237.619 723.312V702.141C227.931 705.161 221.238 707.948 217.541 710.5C213.895 713.052 212.072 716.021 212.072 719.406C212.072 722.375 213.009 724.667 214.884 726.281C216.811 727.896 219.494 728.703 222.931 728.703C225.483 728.703 227.983 728.26 230.431 727.375C232.879 726.437 235.275 725.083 237.619 723.312ZM238.166 732.062C234.52 734.615 231.056 736.464 227.775 737.609C224.546 738.703 221.056 739.25 217.306 739.25C210.848 739.25 205.796 737.714 202.15 734.641C198.504 731.516 196.681 727.245 196.681 721.828C196.681 716.724 198.66 712.245 202.619 708.391C206.577 704.536 212.541 701.281 220.509 698.625L237.619 692.922C237.671 692.505 237.697 692.089 237.697 691.672C237.749 691.255 237.775 690.656 237.775 689.875C237.775 685.552 236.707 682.453 234.572 680.578C232.488 678.651 229.025 677.687 224.181 677.687C220.171 677.687 216.03 678.547 211.759 680.266C207.488 681.932 203.218 684.432 198.947 687.766V673.547C202.645 670.526 206.785 668.26 211.369 666.75C215.952 665.187 220.822 664.406 225.978 664.406C235.249 664.406 241.994 666.464 246.212 670.578C250.431 674.641 252.541 681.229 252.541 690.344V720.891C252.541 723.443 252.749 725.266 253.166 726.359C253.634 727.401 254.39 727.922 255.431 727.922C256.317 727.922 257.228 727.687 258.166 727.219C259.155 726.75 260.744 725.656 262.931 723.937V732.687C260.327 734.927 257.697 736.594 255.041 737.687C252.384 738.729 249.624 739.25 246.759 739.25C243.999 739.25 241.916 738.677 240.509 737.531C239.155 736.385 238.374 734.562 238.166 732.062ZM271.525 738V665.812H285.9V674.641C289.494 671.203 293.061 668.703 296.603 667.141C300.197 665.526 304.051 664.719 308.166 664.719C315.978 664.719 322.124 666.984 326.603 671.516C331.134 676.047 333.4 682.271 333.4 690.187V738H319.025V693.859C319.025 688.026 317.775 683.729 315.275 680.969C312.827 678.156 308.999 676.75 303.791 676.75C300.093 676.75 296.837 677.479 294.025 678.937C291.265 680.344 288.556 682.687 285.9 685.969V738H271.525ZM391.212 735.734C388.973 736.984 386.551 737.896 383.947 738.469C381.395 739.094 378.634 739.406 375.666 739.406C367.541 739.406 361.811 737.479 358.478 733.625C355.197 729.771 353.556 722.74 353.556 712.531V678.312H341.291V676.906L366.525 649.016H368.166V665.812H390.744V678.312H368.166V711.437C368.166 717.427 368.895 721.307 370.353 723.078C371.864 724.797 374.65 725.656 378.712 725.656C380.9 725.656 383.035 725.37 385.119 724.797C387.202 724.224 389.233 723.339 391.212 722.141V735.734ZM450.119 729.172C446.525 732.609 442.931 735.135 439.338 736.75C435.796 738.313 431.968 739.094 427.853 739.094C419.989 739.094 413.791 736.828 409.259 732.297C404.728 727.766 402.462 721.568 402.462 713.703V665.812H416.994V710.031C416.994 715.865 418.218 720.187 420.666 723C423.166 725.76 427.02 727.141 432.228 727.141C435.926 727.141 439.155 726.437 441.916 725.031C444.728 723.573 447.463 721.177 450.119 717.844V665.812H464.494V738H450.119V729.172ZM483.244 738V628.703H497.619V738H483.244ZM551.994 723.312V702.141C542.306 705.161 535.614 707.948 531.916 710.5C528.27 713.052 526.447 716.021 526.447 719.406C526.447 722.375 527.384 724.667 529.259 726.281C531.186 727.896 533.869 728.703 537.306 728.703C539.858 728.703 542.358 728.26 544.806 727.375C547.254 726.437 549.65 725.083 551.994 723.312ZM552.541 732.062C548.895 734.615 545.431 736.464 542.15 737.609C538.921 738.703 535.431 739.25 531.681 739.25C525.223 739.25 520.171 737.714 516.525 734.641C512.879 731.516 511.056 727.245 511.056 721.828C511.056 716.724 513.035 712.245 516.994 708.391C520.952 704.536 526.916 701.281 534.884 698.625L551.994 692.922C552.046 692.505 552.072 692.089 552.072 691.672C552.124 691.255 552.15 690.656 552.15 689.875C552.15 685.552 551.082 682.453 548.947 680.578C546.864 678.651 543.4 677.687 538.556 677.687C534.546 677.687 530.405 678.547 526.134 680.266C521.864 681.932 517.593 684.432 513.322 687.766V673.547C517.02 670.526 521.16 668.26 525.744 666.75C530.327 665.187 535.197 664.406 540.353 664.406C549.624 664.406 556.369 666.464 560.588 670.578C564.806 674.641 566.916 681.229 566.916 690.344V720.891C566.916 723.443 567.124 725.266 567.541 726.359C568.009 727.401 568.765 727.922 569.806 727.922C570.692 727.922 571.603 727.687 572.541 727.219C573.53 726.75 575.119 725.656 577.306 723.937V732.687C574.702 734.927 572.072 736.594 569.416 737.687C566.759 738.729 563.999 739.25 561.134 739.25C558.374 739.25 556.291 738.677 554.884 737.531C553.53 736.385 552.749 734.562 552.541 732.062ZM585.9 738V665.812H600.275V674.641C603.869 671.203 607.437 668.703 610.978 667.141C614.572 665.526 618.426 664.719 622.541 664.719C630.353 664.719 636.499 666.984 640.978 671.516C645.509 676.047 647.775 682.271 647.775 690.187V738H633.4V693.859C633.4 688.026 632.15 683.729 629.65 680.969C627.202 678.156 623.374 676.75 618.166 676.75C614.468 676.75 611.213 677.479 608.4 678.937C605.64 680.344 602.931 682.687 600.275 685.969V738H585.9Z" fill="#D12336"/>
</svg>
